<svg width="30" height="30" viewBox="0 0 30 30" fill="none" xmlns="http://www.w3.org/2000/svg">
<path d="M29.9921 8.41141C29.9928 8.39767 30 8.38615 30 8.37233C30 8.32715 29.9805 8.28837 29.9743 8.24487C29.9651 8.17946 29.9583 8.11595 29.9358 8.05398C29.9147 7.99643 29.8827 7.94788 29.8514 7.89621C29.8206 7.845 29.793 7.79439 29.7524 7.74936C29.7081 7.70021 29.6549 7.66441 29.6012 7.62548C29.5657 7.59969 29.5406 7.56435 29.5007 7.54313L15.4382 0.0961756C15.4111 0.0819026 15.3813 0.082666 15.3535 0.0712934C15.295 0.0470982 15.2371 0.0309171 15.1749 0.0188576C15.1156 0.00756137 15.059 -0.000224004 14.9996 4.96668e-06C14.9404 -0.000224004 14.884 0.0074849 14.8248 0.0187811C14.762 0.0308406 14.7037 0.0472506 14.6447 0.0717512C14.6175 0.0829711 14.5883 0.0822077 14.5618 0.0961754L0.499268 7.54313C0.459366 7.56435 0.434265 7.59969 0.398788 7.62548C0.345077 7.66441 0.291901 7.70021 0.247574 7.74936C0.206985 7.79439 0.179367 7.845 0.148621 7.89621C0.117264 7.94788 0.0852966 7.99643 0.0642395 8.05398C0.0416565 8.11595 0.0348664 8.17946 0.0257111 8.24487C0.0195313 8.28837 0 8.32715 0 8.37233C0 8.38615 0.0072479 8.39767 0.00785828 8.41141C0.010376 8.47346 0.0296784 8.53269 0.0447845 8.59421C0.0601197 8.65542 0.0706482 8.71656 0.0973511 8.77236C0.103226 8.7848 0.102157 8.79846 0.108642 8.81075C0.120544 8.83326 0.144958 8.84181 0.158386 8.86295C0.224838 8.96798 0.307922 9.05491 0.409317 9.12628C0.443115 9.14994 0.471802 9.17406 0.508194 9.19299C0.638428 9.2616 0.780105 9.31022 0.9375 9.31022H29.0625C29.2199 9.31022 29.3616 9.2616 29.4918 9.19299C29.5282 9.17406 29.5569 9.14994 29.5907 9.12628C29.6921 9.05491 29.7752 8.96798 29.8416 8.86295C29.855 8.84181 29.8795 8.83326 29.8914 8.81075C29.8978 8.79846 29.8968 8.7848 29.9026 8.77236C29.9294 8.71656 29.9399 8.65542 29.9552 8.59421C29.9703 8.53269 29.9896 8.47346 29.9921 8.41141ZM15 1.98669L25.2874 7.43444H4.7126L15 1.98669Z" fill="#1D1D1B"/>
<path d="M11.6309 23.0721C11.6309 23.5899 12.0508 24.01 12.5684 24.01H17.4316C17.9492 24.01 18.3691 23.5899 18.3691 23.0721C18.3691 22.6712 18.115 22.3349 17.7612 22.2008V12.1171C18.115 11.983 18.3691 11.6467 18.3691 11.2458C18.3691 10.728 17.9492 10.308 17.4316 10.308H12.5684C12.0508 10.308 11.6309 10.728 11.6309 11.2458C11.6309 11.6467 11.885 11.983 12.2388 12.1171V22.2008C11.885 22.3349 11.6309 22.6712 11.6309 23.0721ZM14.1138 22.1342V12.1837H15.8862V22.1342H14.1138Z" fill="#1D1D1B"/>
<path d="M3.52539 23.0721C3.52539 23.5899 3.94531 24.01 4.46289 24.01H9.32617C9.84375 24.01 10.2637 23.5899 10.2637 23.0721C10.2637 22.6712 10.0095 22.3349 9.65576 22.2008V12.1171C10.0095 11.983 10.2637 11.6467 10.2637 11.2458C10.2637 10.728 9.84375 10.308 9.32617 10.308H4.46289C3.94531 10.308 3.52539 10.728 3.52539 11.2458C3.52539 11.6467 3.77953 11.983 4.1333 12.1171V22.2008C3.77953 22.3349 3.52539 22.6712 3.52539 23.0721ZM6.0083 22.1342V12.1837H7.78076V22.1342H6.0083Z" fill="#1D1D1B"/>
<path d="M19.7363 23.0721C19.7363 23.5899 20.1562 24.01 20.6738 24.01H25.5371C26.0547 24.01 26.4746 23.5899 26.4746 23.0721C26.4746 22.6712 26.2205 22.3349 25.8667 22.2008V12.1171C26.2205 11.983 26.4746 11.6467 26.4746 11.2458C26.4746 10.728 26.0547 10.308 25.5371 10.308H20.6738C20.1562 10.308 19.7363 10.728 19.7363 11.2458C19.7363 11.6467 19.9905 11.983 20.3442 12.1171V22.2008C19.9905 22.3349 19.7363 22.6712 19.7363 23.0721ZM22.2192 22.1342V12.1837H23.9917V22.1342H22.2192Z" fill="#1D1D1B"/>
<path d="M1.22925 26.0567C1.22925 26.5745 1.64917 26.9946 2.16675 26.9946H27.8333C28.3508 26.9946 28.7708 26.5745 28.7708 26.0567C28.7708 25.5389 28.3508 25.1188 27.8333 25.1188H2.16675C1.64917 25.1188 1.22925 25.5389 1.22925 26.0567Z" fill="#1D1D1B"/>
<path d="M28.8464 28.1242H1.15356C0.635986 28.1242 0.216064 28.5443 0.216064 29.0621C0.216064 29.5799 0.635986 30 1.15356 30H28.8464C29.364 30 29.7839 29.5799 29.7839 29.0621C29.7839 28.5443 29.364 28.1242 28.8464 28.1242Z" fill="#1D1D1B"/>
</svg>
