<svg width="30" height="30" viewBox="0 0 30 30" fill="none" xmlns="http://www.w3.org/2000/svg">
<path d="M13.1173 0H11.8056C5.29612 0 0 5.04688 0 11.25V30H13.1173V26.25H24.9229V19.375H30L24.9216 11.0794C24.8252 4.95437 19.5671 0 13.1173 0ZM23.6112 18.125V25H11.8056V28.75H1.31173V11.25C1.31173 5.73625 6.01954 1.25 11.8056 1.25H13.1173C18.9034 1.25 23.6112 5.73625 23.6112 11.25V11.4194L27.7163 18.125H23.6112Z" fill="black"/>
<path d="M15.2771 12.3169L16.2044 11.4331L12.4614 7.86624L8.71838 11.4331L9.64578 12.3169L11.8055 10.2587V21.875H13.1173V10.2587L15.2771 12.3169Z" fill="black"/>
<path d="M12.4614 2.5C7.7602 2.5 3.93518 6.145 3.93518 10.625C3.93518 14.055 6.21956 17.1312 9.61892 18.2781L10.057 17.1C7.17975 16.1294 5.24691 13.5275 5.24691 10.625C5.24691 6.83437 8.48362 3.75 12.4614 3.75C16.4393 3.75 19.676 6.83437 19.676 10.625C19.676 13.5275 17.7431 16.1294 14.8659 17.1L15.304 18.2781C18.7033 17.1312 20.9877 14.055 20.9877 10.625C20.9877 6.145 17.1627 2.5 12.4614 2.5Z" fill="black"/>
</svg>
