<svg width="30" height="30" viewBox="0 0 30 30" fill="none" xmlns="http://www.w3.org/2000/svg">
<path fill-rule="evenodd" clip-rule="evenodd" d="M16.7367 1.05124C14.5714 1.05124 12.4063 1.05124 10.241 1.05124V5.83153V5.83838V6.57866C12.4063 6.57866 14.5714 6.57866 16.7367 6.57866C16.7367 4.73627 16.7367 2.89388 16.7367 1.05124ZM17.8763 5.80372V1.82861H17.1806V5.8038H17.8763V5.80372ZM9.79702 5.54621V1.1326C8.7026 1.51313 7.80573 2.08862 7.08096 2.81954C6.33082 3.57611 5.76369 4.49956 5.34871 5.54629H9.79702V5.54621ZM14.7399 7.14972H12.2377V14.5221H14.7399V7.14972ZM20.1558 1.05124H18.3203C18.3203 2.89388 18.3203 4.73627 18.3203 6.57874H20.1558V1.05124ZM14.7399 26.5563V18.5668H12.2377V26.5563H14.7399ZM18.7788 17.9959C18.8512 17.9981 18.9237 18.0446 18.9653 18.1304C19.1791 18.5573 19.4564 18.9102 19.797 19.1491C20.1105 19.3696 20.4819 19.4949 20.9096 19.4949C21.3535 19.4949 21.7974 19.3069 22.1761 18.9867C22.4533 18.75 22.6942 18.4436 22.8701 18.0886H20.1142C19.9909 18.0886 19.8913 17.961 19.8913 17.8033V15.2878C19.8913 15.1299 19.9909 15.0023 20.1142 15.0023H22.8701C22.6943 14.645 22.4533 14.3387 22.1761 14.1042C21.7974 13.784 21.3535 13.5961 20.9096 13.5961C20.4819 13.5961 20.1105 13.7214 19.797 13.942C19.4618 14.1762 19.1882 14.522 18.9762 14.9397C18.9382 15.0301 18.8638 15.0928 18.7788 15.0928C15.2528 15.0928 11.7267 15.0928 8.19886 15.0928C8.1264 15.0906 8.05394 15.0441 8.01227 14.9605C7.80573 14.5427 7.51577 14.197 7.17513 13.9558C6.84722 13.726 6.47033 13.5961 6.06806 13.5961C5.59882 13.5961 5.1603 13.7748 4.79795 14.0835C4.51712 14.3223 4.27972 14.6357 4.10396 15.0023H6.86352C6.98672 15.0023 7.08637 15.1299 7.08637 15.2878V17.8033C7.08637 17.961 6.98666 18.0886 6.86352 18.0886H4.10396C4.28155 18.4554 4.51712 18.7686 4.79795 19.0053C5.1603 19.3139 5.59882 19.4949 6.06806 19.4949C6.47033 19.4949 6.84722 19.3625 7.17513 19.1329C7.51035 18.8986 7.79483 18.5573 8.00138 18.1513C8.0394 18.0585 8.11368 17.9959 8.19886 17.9959C11.7268 17.9959 15.2528 17.9959 18.7788 17.9959ZM12.2377 0.482689H14.74V0H12.2377V0.482689ZM13.7053 3.53886C13.6492 3.4692 13.5731 3.42518 13.4897 3.42518C13.4046 3.42518 13.3285 3.4692 13.2741 3.53886C13.2179 3.61077 13.1835 3.70825 13.1835 3.81499C13.1835 3.92408 13.2179 4.02155 13.2741 4.09113C13.3284 4.16304 13.4045 4.20731 13.4897 4.20731C13.5677 4.20731 13.6401 4.17022 13.6945 4.10507L13.7054 4.09113C13.7597 4.02155 13.7942 3.92408 13.7942 3.81499C13.7942 3.70833 13.7597 3.61086 13.7053 3.53886ZM13.4897 2.85421C13.6963 2.85421 13.8847 2.96354 14.0207 3.1351C14.1547 3.30917 14.2399 3.55047 14.2399 3.81499C14.2399 4.08194 14.1547 4.32099 14.0207 4.49497L14.0025 4.51593C13.8684 4.67597 13.6873 4.77578 13.4898 4.77578C13.2832 4.77578 13.0948 4.66912 12.9589 4.49497C12.8231 4.32099 12.7379 4.08202 12.7379 3.81499C12.7379 3.55047 12.8231 3.30917 12.9589 3.1351C13.0929 2.96354 13.2813 2.85421 13.4897 2.85421ZM22.3791 7.24026H22.3646C22.2142 7.24026 22.0783 7.31677 21.9804 7.44439C21.8825 7.56968 21.821 7.74366 21.821 7.93627L21.8319 8.09881C21.8319 8.25659 21.7304 8.38413 21.609 8.38413H21.6018C21.4513 8.38413 21.3155 8.46081 21.2176 8.58835C21.118 8.71364 21.0581 8.8877 21.0581 9.08039C21.0581 9.27292 21.118 9.44924 21.2176 9.57452C21.3155 9.6999 21.4513 9.77891 21.6018 9.77891H25.8652C26.0156 9.77891 26.1515 9.6999 26.2512 9.57452C26.349 9.44924 26.4106 9.27292 26.4106 9.08039C26.4106 8.98977 26.3979 8.90407 26.3743 8.8274L26.3671 8.80894C26.3399 8.72541 26.3001 8.65099 26.2512 8.58835C26.195 8.52094 26.1678 8.42122 26.1841 8.31915L26.1968 8.22627L26.1986 8.13356C26.1986 7.89451 26.1242 7.67876 26.0029 7.52324C25.8797 7.36529 25.7111 7.27024 25.5246 7.27024C25.4792 7.27024 25.4339 7.275 25.3923 7.28653C25.3489 7.29814 25.3071 7.31435 25.269 7.33306C25.2328 7.35151 25.1912 7.35853 25.1494 7.35151C25.0299 7.32838 24.9466 7.18221 24.9647 7.02669L24.9719 6.88745C24.9719 6.6484 24.8976 6.43024 24.7744 6.2748C24.6531 6.11936 24.4845 6.0218 24.2978 6.0218C24.1783 6.0218 24.0678 6.06131 23.9717 6.12863C23.8757 6.19595 23.7924 6.29342 23.7325 6.40935L23.7271 6.42556C23.6636 6.55795 23.526 6.6018 23.4208 6.51844C23.3811 6.48829 23.3393 6.46281 23.2941 6.44652L23.285 6.44176C23.2397 6.42556 23.189 6.41863 23.1364 6.41863C23.0024 6.41863 22.8791 6.47893 22.785 6.58108C22.6925 6.68323 22.6255 6.82247 22.6019 6.98008C22.591 7.12416 22.495 7.24026 22.3791 7.24026ZM9.86948 16.2694C9.81515 16.1997 9.73722 16.1532 9.65387 16.1532C9.57052 16.1532 9.49258 16.1997 9.43826 16.2694C9.38393 16.3389 9.34943 16.4364 9.34943 16.5455C9.34943 16.6522 9.38387 16.7496 9.43826 16.8216C9.49265 16.8936 9.57052 16.9378 9.65387 16.9378C9.73356 16.9378 9.80602 16.8983 9.86041 16.8332L9.86948 16.8216C9.9238 16.7497 9.95831 16.6522 9.95831 16.5455C9.95831 16.4364 9.92387 16.3389 9.86948 16.2694ZM9.65393 15.5847C9.86048 15.5847 10.049 15.6915 10.1848 15.8656C10.3207 16.0397 10.404 16.2786 10.404 16.5455C10.404 16.81 10.3207 17.0515 10.1848 17.2254L10.1667 17.2441C10.0326 17.4065 9.85141 17.5039 9.65393 17.5039C9.44739 17.5039 9.25891 17.3972 9.12306 17.2231C8.98715 17.0515 8.9038 16.8101 8.9038 16.5456C8.9038 16.2787 8.98715 16.0398 9.12306 15.8657C9.25891 15.6915 9.44732 15.5847 9.65393 15.5847ZM17.5394 16.2694C17.4851 16.1997 17.409 16.1532 17.3237 16.1532C17.2405 16.1532 17.1644 16.1997 17.1081 16.2694C17.0537 16.3389 17.0194 16.4364 17.0194 16.5455C17.0194 16.6522 17.0537 16.7496 17.1081 16.8216C17.1643 16.8935 17.2404 16.9378 17.3237 16.9378C17.4035 16.9378 17.476 16.8983 17.5303 16.8332L17.5394 16.8216C17.5956 16.7497 17.63 16.6522 17.63 16.5455C17.6299 16.4364 17.5956 16.3389 17.5394 16.2694ZM1.01283 28.3315C0.889636 28.3315 0.789984 28.2015 0.789984 28.0461C0.789984 27.8882 0.889636 27.7606 1.01283 27.7606H21.06C21.1832 27.7606 21.2829 27.8882 21.2829 28.0461C21.2829 28.2015 21.1832 28.3315 21.06 28.3315H1.01283ZM12.7523 30C12.6291 30 12.5295 29.8724 12.5295 29.7145C12.5295 29.5592 12.6291 29.4292 12.7523 29.4292H26.6244C26.7477 29.4292 26.8473 29.5592 26.8473 29.7145C26.8473 29.8724 26.7477 30 26.6244 30H12.7523ZM28.0431 30C27.9218 30 27.8202 29.8724 27.8202 29.7145C27.8202 29.5592 27.9218 29.4292 28.0431 29.4292H29.7771C29.9003 29.4292 30 29.5592 30 29.7145C30 29.8724 29.9003 30 29.7771 30H28.0431ZM0.222849 29.9489C0.101479 29.9489 0 29.8214 0 29.6658C0 29.508 0.101479 29.3803 0.222849 29.3803H6.79648C6.91968 29.3803 7.01933 29.508 7.01933 29.6658C7.01933 29.8213 6.91961 29.9489 6.79648 29.9489H0.222849ZM22.3085 28.3315C22.1851 28.3315 22.0856 28.2015 22.0856 28.0461C22.0856 27.8882 22.1851 27.7606 22.3085 27.7606H24.0425C24.1657 27.7606 24.2653 27.8882 24.2653 28.0461C24.2653 28.2015 24.1657 28.3315 24.0425 28.3315H22.3085ZM17.3237 15.5847C17.5321 15.5847 17.7188 15.6915 17.8547 15.8656C17.9905 16.0397 18.0739 16.2786 18.0739 16.5455C18.0739 16.81 17.9905 17.0515 17.8547 17.2254L17.8384 17.2441C17.7043 17.4065 17.5231 17.5039 17.3237 17.5039C17.1173 17.5039 16.9287 17.3972 16.7947 17.2231C16.6588 17.0515 16.5736 16.8101 16.5736 16.5456C16.5736 16.2787 16.6588 16.0398 16.7928 15.8657C16.9287 15.6915 17.1173 15.5847 17.3237 15.5847Z" fill="black"/>
</svg>
