<svg width="30" height="30" viewBox="0 0 30 30" fill="none" xmlns="http://www.w3.org/2000/svg">
<path d="M14.348 3.50674C12.853 3.67101 11.444 4.96182 10.3507 7.18424C10.0553 7.78461 9.79265 8.43405 9.56403 9.12329C11.1584 9.30088 12.7549 9.39483 14.3479 9.40695V3.50674H14.348Z" fill="black"/>
<path d="M14.348 10.1084C12.6847 10.0959 11.0176 9.99428 9.35335 9.80383C8.81127 11.6803 8.50944 13.8132 8.48083 16.0431H14.348V10.1084Z" fill="black"/>
<path d="M17.2726 8.82825C17.2675 8.81075 17.2625 8.79317 17.2574 8.77559C17.2441 8.72921 17.2309 8.68268 17.2184 8.636C17.2087 8.5995 17.1995 8.56277 17.1903 8.52604C17.1766 8.47091 17.1633 8.41578 17.1508 8.36028C17.141 8.31742 17.1315 8.27455 17.1224 8.23139C17.1161 8.20102 17.1098 8.17058 17.1038 8.14006C17.0919 8.07932 17.0806 8.01835 17.0701 7.95709C17.0677 7.9434 17.0651 7.92978 17.0628 7.91602C17.0508 7.84353 17.04 7.7706 17.0299 7.69744C17.0269 7.67553 17.0242 7.65361 17.0213 7.63169C17.0133 7.56983 17.0061 7.50782 16.9995 7.44551C16.9979 7.42927 16.996 7.41304 16.9944 7.39681C16.9868 7.31983 16.9804 7.24249 16.9751 7.16477C16.974 7.14816 16.9731 7.13155 16.9721 7.11495C16.9682 7.05211 16.9651 6.98905 16.9627 6.92577C16.9619 6.90423 16.961 6.88276 16.9604 6.86129C16.9581 6.78312 16.9564 6.70472 16.9564 6.62603C16.9564 6.5635 16.9573 6.50111 16.9587 6.4388C16.9588 6.43266 16.9592 6.42675 16.9593 6.4207C16.9596 6.41239 16.9599 6.40416 16.9602 6.39593C16.9607 6.37903 16.9613 6.36205 16.9618 6.34507C16.9643 6.27184 16.9679 6.19875 16.9723 6.12597C16.9724 6.12387 16.9724 6.12178 16.9727 6.11976C17.0045 5.61454 17.0844 5.11941 17.2114 4.63738C16.5078 3.96916 15.7659 3.5899 15.0001 3.5062V9.40701C15.814 9.40162 16.6268 9.37454 17.4376 9.32569C17.3769 9.16195 17.322 8.99604 17.2726 8.82825Z" fill="black"/>
<path d="M14.348 16.7441H8.48083C8.50944 18.9755 8.81162 21.1095 9.35425 22.9867C11.0167 22.7972 12.6822 22.6966 14.348 22.685V16.7441Z" fill="black"/>
<path d="M20.6684 13.1416C19.5951 12.5494 18.6864 11.6639 18.033 10.5716C17.9236 10.3889 17.8233 10.2011 17.7301 10.0099C16.8223 10.0697 15.9117 10.1023 15.0001 10.1082V16.0432H20.8669C20.8541 15.0617 20.7877 14.0882 20.6684 13.1416Z" fill="black"/>
<path d="M14.348 23.3861C12.7526 23.3973 11.1575 23.4907 9.56519 23.6674C9.79353 24.3554 10.0558 25.0039 10.3507 25.6033C11.444 27.8257 12.853 29.1166 14.348 29.2808V23.3861Z" fill="black"/>
<path d="M9.77423 6.85665C10.4339 5.51565 11.2112 4.48343 12.0627 3.79367C9.29681 4.4491 6.88444 6.12193 5.18896 8.42589C6.42219 8.68141 7.6598 8.88825 8.89942 9.04429C9.15017 8.26461 9.44226 7.53123 9.77423 6.85665Z" fill="black"/>
<path d="M8.69434 9.72372C7.37906 9.55459 6.06594 9.3301 4.75811 9.05026C3.4619 11.0465 2.67798 13.4504 2.61298 16.0431H7.82844C7.85662 13.7945 8.15588 11.6367 8.69434 9.72372Z" fill="black"/>
<path d="M8.69522 23.0667C8.15621 21.1528 7.85674 18.9941 7.82855 16.7442H2.6131C2.67817 19.3379 3.46258 21.7427 4.75962 23.7395C6.06836 23.4595 7.38071 23.2352 8.69522 23.0667Z" fill="black"/>
<path d="M9.7742 25.931C9.44264 25.2571 9.15083 24.5247 8.90029 23.7461C7.66115 23.9015 6.42389 24.107 5.18976 24.3627C6.88516 26.6662 9.29719 28.3386 12.0627 28.9939C11.2111 28.3042 10.4339 27.272 9.7742 25.931Z" fill="black"/>
<path d="M24.7314 8.72975C24.8811 8.54259 24.9555 8.32282 24.9555 8.06849C24.9555 7.8434 24.8923 7.64786 24.7665 7.48509C24.6428 7.32052 24.438 7.1959 24.1524 7.10748V9.09337C24.3897 9.03786 24.5828 8.91676 24.7314 8.72975Z" fill="black"/>
<path d="M23.4657 3.6918C23.2804 3.76272 23.135 3.87881 23.0273 4.04158C22.9189 4.20428 22.8659 4.38254 22.8659 4.578C22.8659 4.75663 22.9142 4.9227 23.0123 5.07672C23.1106 5.22894 23.2623 5.35357 23.4657 5.44737V3.6918Z" fill="black"/>
<path d="M17.614 6.88545C17.6808 8.67842 18.4369 10.3598 19.6565 11.544C19.669 11.556 19.6817 11.5679 19.6943 11.5799C19.7235 11.6077 19.7529 11.635 19.7824 11.6621C20.8655 12.6531 22.2706 13.2525 23.8043 13.2525C23.8598 13.2525 23.9152 13.2516 23.9704 13.2501C23.9999 13.2492 24.0292 13.2478 24.0586 13.2465C24.083 13.2455 24.1074 13.2446 24.1317 13.2433C24.1722 13.2411 24.2126 13.2382 24.2528 13.2352C24.2645 13.2343 24.2762 13.2335 24.2879 13.2325C24.3364 13.2285 24.385 13.2239 24.4332 13.2187C24.435 13.2185 24.4369 13.2183 24.4387 13.2181C27.5581 12.8772 30 10.051 30 6.62611C30 2.97247 27.2206 0 23.8044 0C20.9806 0 18.592 2.03114 17.8485 4.79903C17.847 4.80509 17.8452 4.81122 17.8436 4.81728C17.8323 4.85969 17.8216 4.90248 17.8111 4.94534C17.8038 4.97534 17.7967 5.00556 17.7897 5.03571C17.7784 5.08478 17.7675 5.134 17.7572 5.18344C17.7473 5.23057 17.7379 5.27785 17.729 5.3252C17.7238 5.35385 17.7186 5.3825 17.7136 5.41115C17.7035 5.46897 17.6941 5.52702 17.6855 5.58514C17.6829 5.60317 17.6802 5.62104 17.6776 5.63907C17.6687 5.70408 17.6605 5.76931 17.6533 5.83461C17.6509 5.8557 17.6486 5.87687 17.6465 5.89804C17.6392 5.96881 17.6327 6.03972 17.6275 6.11086C17.6269 6.11909 17.6265 6.12739 17.626 6.13569C17.6213 6.20391 17.6179 6.27214 17.6152 6.34051C17.6149 6.34567 17.6147 6.35075 17.6145 6.35577C17.6139 6.3705 17.6133 6.38524 17.613 6.39997C17.6106 6.47523 17.6089 6.55048 17.6089 6.62603C17.6089 6.69867 17.6103 6.771 17.6126 6.84326C17.6129 6.8574 17.6135 6.87139 17.614 6.88545ZM22.1159 6.03246C21.8294 5.64812 21.6856 5.18419 21.6856 4.63723C21.6856 4.08301 21.8485 3.6175 22.1727 3.24154C22.4965 2.86438 22.927 2.6479 23.4657 2.59067V2.09218H24.1524V2.59067C24.6555 2.65486 25.0552 2.8382 25.3534 3.14145C25.6502 3.44426 25.8407 3.8494 25.9224 4.35664L24.723 4.5227C24.6492 4.12475 24.4587 3.85441 24.1524 3.71243V5.69151C24.912 5.90949 25.4294 6.19509 25.7032 6.54322C25.9792 6.89286 26.1163 7.34115 26.1163 7.88812C26.1163 8.49941 25.9437 9.01354 25.5972 9.43259C25.2506 9.85156 24.7697 10.1113 24.1524 10.2153V11.1605H23.4657V10.2254C22.9239 10.1545 22.484 9.93983 22.1437 9.57801C21.8035 9.21618 21.5875 8.70378 21.4925 8.04408L22.7211 7.88812C22.771 8.15853 22.866 8.39042 23.0045 8.58596C23.143 8.78157 23.2964 8.92183 23.4657 9.0101V6.88949C22.8516 6.70069 22.4016 6.41509 22.1159 6.03246Z" fill="black"/>
<path d="M26.4124 13.4032C25.6443 13.743 24.8335 13.9264 23.9949 13.9506C23.9897 13.9506 23.9846 13.9509 23.9794 13.9511C23.9211 13.9527 23.8627 13.9535 23.8042 13.9535C22.9448 13.9535 22.1222 13.7828 21.3637 13.472C21.4557 14.3152 21.5079 15.1762 21.5189 16.0431H26.7342C26.712 15.1512 26.6042 14.2663 26.4124 13.4032Z" fill="black"/>
<path d="M18.9972 25.6033C19.2921 25.0039 19.5544 24.3555 19.7828 23.6676C18.1903 23.491 16.5953 23.3974 15.0001 23.3861V29.2808C16.495 29.1166 17.9038 27.8257 18.9972 25.6033Z" fill="black"/>
<path d="M20.8673 16.7441H15.0001V22.685C16.6657 22.6967 18.3311 22.7973 19.9936 22.987C20.5364 21.1097 20.8386 18.9755 20.8673 16.7441Z" fill="black"/>
<path d="M26.7344 16.7441H21.5195C21.4913 18.994 21.1917 21.1529 20.6526 23.0667C21.967 23.2353 23.2792 23.4595 24.5881 23.7393C25.8851 21.7427 26.6695 19.3379 26.7344 16.7441Z" fill="black"/>
<path d="M19.5738 25.931C18.914 27.2721 18.1368 28.3043 17.2852 28.994C20.0506 28.3387 22.4627 26.6662 24.1579 24.3627C22.9237 24.107 21.6865 23.9017 20.4475 23.7463C20.197 24.5248 19.9052 25.2572 19.5738 25.931Z" fill="black"/>
<path d="M29.0215 29.299H0.326123C0.14608 29.299 0 29.4559 0 29.6496C0 29.8432 0.14608 30 0.326123 30H29.0214C29.2015 30 29.3475 29.8432 29.3475 29.6496C29.3475 29.4559 29.2016 29.299 29.0215 29.299Z" fill="black"/>
</svg>
