<svg width="30" height="30" viewBox="0 0 30 30" fill="none" xmlns="http://www.w3.org/2000/svg">
<path d="M12.8948 21.1167C12.8948 22.5731 13.8837 23.7579 15.0992 23.7579C16.3147 23.7579 17.3036 22.5731 17.3036 21.1167C17.3036 19.6593 16.3147 18.4736 15.0992 18.4736C13.8836 18.4735 12.8948 19.6592 12.8948 21.1167Z" fill="black"/>
<path d="M3.95369 13.7C4.77622 13.7 5.44544 12.7883 5.44544 11.6677C5.44544 10.5471 4.77622 9.63559 3.95369 9.63559C3.13066 9.63559 2.46106 10.5471 2.46106 11.6677C2.46106 12.7883 3.13066 13.7 3.95369 13.7Z" fill="black"/>
<path d="M15.1058 5.64001C16.4026 5.64001 17.4578 4.37487 17.4578 2.82C17.4578 1.26499 16.4026 0 15.1058 0C13.8085 0 12.7531 1.26499 12.7531 2.82C12.753 4.37495 13.8085 5.64001 15.1058 5.64001Z" fill="black"/>
<path d="M15.0001 6.78574C12.4383 6.78574 10.336 8.78201 10.1793 11.2943H19.8217C19.665 8.78194 17.5624 6.78574 15.0001 6.78574Z" fill="black"/>
<path d="M26.9352 13.7C27.7582 13.7 28.4279 12.7883 28.4279 11.6677C28.4279 10.5471 27.7583 9.63559 26.9352 9.63559C26.1132 9.63559 25.4444 10.5471 25.4444 11.6677C25.4444 12.7883 26.1132 13.7 26.9352 13.7Z" fill="black"/>
<path d="M6.20739 15.6108C6.33068 15.6875 6.48222 15.6297 6.54609 15.4821L8.09631 11.8985H21.8979L23.5756 16.1946C23.6184 16.304 23.7088 16.3682 23.8033 16.3682C23.8389 16.3682 23.8752 16.3591 23.9096 16.3397C24.0353 16.2693 24.0894 16.0899 24.0307 15.9394L22.2852 11.4698C22.2439 11.364 22.1552 11.2963 22.0577 11.2963H7.94358C7.84975 11.2963 7.76377 11.359 7.72056 11.4588L6.10007 15.205C6.03613 15.3526 6.08424 15.5343 6.20739 15.6108Z" fill="black"/>
<path d="M29.9714 29.3886L28.7559 26.6044C28.7726 26.5641 28.7828 26.5194 28.7828 26.4713V16.4249C28.7828 16.3784 28.7738 16.3325 28.7566 16.291C28.1757 14.8876 26.6846 14.6057 25.6358 15.1497C25.5963 15.1701 25.5618 15.2024 25.5357 15.2436L24.9299 16.1976C24.6399 16.6544 24.3503 17.1106 24.0601 17.5668L21.5785 17.6513C21.5246 17.6531 21.4725 17.6757 21.4301 17.7158C20.9886 18.1332 20.8154 18.7086 20.9782 19.2172C21.1693 19.8144 21.7445 20.1352 22.5162 20.0755C22.8623 20.0493 23.3547 20.0113 23.8841 19.9708C24.6549 19.9115 25.5044 19.8463 26.0958 19.8021C26.0973 19.802 26.0988 19.8014 26.1003 19.8012C26.1148 19.7997 26.1293 19.7971 26.1434 19.7927C26.1462 19.7918 26.1487 19.7909 26.1514 19.7898C26.1637 19.7854 26.1757 19.7799 26.1874 19.7735C26.1896 19.7721 26.1918 19.7711 26.194 19.7698C26.2065 19.7623 26.2184 19.7531 26.2298 19.7431C26.2323 19.7407 26.2347 19.7385 26.237 19.7361C26.2477 19.726 26.2578 19.715 26.2671 19.7025C26.2676 19.7017 26.2683 19.7011 26.2688 19.7004C26.276 19.6906 26.2828 19.6801 26.289 19.669C26.3772 19.5108 27.4857 17.55 27.4969 17.5301C27.5747 17.3925 27.5447 17.2053 27.4299 17.112C27.3151 17.0187 27.1589 17.0548 27.081 17.1922C27.0407 17.2635 26.1999 18.7508 25.941 19.2104C25.3582 19.2541 24.571 19.3145 23.8519 19.3698C23.3226 19.4105 22.8304 19.4483 22.4841 19.4745C21.8469 19.5234 21.5307 19.2625 21.4472 19.0017C21.3727 18.7688 21.4617 18.4868 21.6803 18.2503L24.1942 18.1647C24.2701 18.1621 24.3408 18.1186 24.3868 18.0462C24.7014 17.5518 25.0153 17.0572 25.3295 16.5623L25.894 15.6733C26.6184 15.3348 27.7994 15.4365 28.2803 16.4982V25.5154L26.0719 20.4573C26.0078 20.31 25.8558 20.2533 25.7329 20.3302C25.61 20.4074 25.5625 20.5892 25.6269 20.7365L29.3349 29.2296L19.4657 29.2866C19.0787 27.1834 17.2242 25.584 15.0002 25.584C12.7579 25.584 10.8906 27.2095 10.5248 29.3384L0.661033 29.3956L4.30208 20.7649C4.36469 20.6165 4.31508 20.4354 4.19123 20.3605C4.0672 20.2852 3.91628 20.3449 3.85367 20.4932L2.60961 23.4422V16.4983C3.0903 15.4369 4.27137 15.3355 4.99574 15.6733C5.49841 16.4656 6.00045 17.256 6.504 18.0465C6.54998 18.1187 6.62075 18.1621 6.6965 18.1647L8.93497 18.241C8.99407 18.2431 9.04393 18.2424 9.08733 18.2418C9.21375 18.2401 9.21356 18.24 9.30657 18.364C9.49398 18.6151 9.5662 18.901 9.49504 19.1104C9.42069 19.3293 9.19209 19.465 8.8505 19.4926C8.64608 19.5102 8.39832 19.4847 8.1586 19.4602C8.0639 19.4505 7.97114 19.4411 7.88284 19.4344C7.32057 19.3923 6.60436 19.3373 5.94525 19.2867C5.58432 19.2591 5.24054 19.2326 4.94857 19.2104C4.68436 18.7423 3.8087 17.1924 3.8087 17.1924L3.3927 17.5301C3.3927 17.5301 4.51084 19.5093 4.6014 19.67C4.60749 19.6809 4.61408 19.691 4.62112 19.7005C4.62112 19.7007 4.62112 19.7007 4.62112 19.7007C4.63079 19.7138 4.64147 19.7254 4.65258 19.7361C4.65503 19.7383 4.65742 19.7407 4.65993 19.7429C4.67136 19.7531 4.68329 19.7623 4.69579 19.7699C4.69774 19.7711 4.69981 19.772 4.70182 19.7732C4.71356 19.7798 4.72568 19.7852 4.73806 19.7896C4.74082 19.7907 4.74346 19.7918 4.74622 19.7927C4.76029 19.7972 4.77467 19.7998 4.78918 19.8012C4.79069 19.8014 4.79213 19.802 4.79364 19.8021C5.10972 19.8261 5.50017 19.856 5.91309 19.8877C6.57246 19.9383 7.28898 19.9933 7.85112 20.0353C7.93566 20.0417 8.02471 20.0509 8.11571 20.0602C8.37452 20.0867 8.64212 20.114 8.88504 20.0934C9.6172 20.034 9.87287 19.5942 9.96016 19.3374C10.1064 18.9068 10.002 18.3926 9.68038 17.9619C9.45799 17.6654 9.32667 17.6355 9.08099 17.6395C9.04331 17.6401 9.0001 17.6409 8.94891 17.6391L6.83033 17.5667C6.33752 16.7931 5.84615 16.0193 5.35409 15.2437C5.32796 15.2025 5.29342 15.17 5.25379 15.1494C4.20518 14.6062 2.7138 14.8879 2.13306 16.291C2.11586 16.3327 2.10688 16.3784 2.10688 16.4248V24.6331L0.0270396 29.5631C-0.0124633 29.6566 -0.00844384 29.7681 0.0375277 29.8573C0.0833109 29.9461 0.164201 30 0.251182 30C0.251559 30 0.251999 30 0.252438 30L29.7498 29.8291C29.8375 29.8287 29.9187 29.7734 29.9638 29.6834C30.0092 29.5935 30.012 29.4818 29.9714 29.3886Z" fill="black"/>
</svg>
