<svg width="30" height="30" viewBox="0 0 30 30" fill="none" xmlns="http://www.w3.org/2000/svg">
<path d="M9.08699 24.376C8.95613 24.376 8.82527 24.3267 8.7252 24.2305L5.01497 20.6677C4.91747 20.574 4.86359 20.4508 4.86359 20.3201C4.86359 20.1894 4.91747 20.0637 5.01497 19.9724L22.6321 3.04374C22.8323 2.85143 23.1581 2.85143 23.3583 3.04374L27.0659 6.60651C27.1634 6.7002 27.2173 6.82348 27.2173 6.95416C27.2173 7.08484 27.1634 7.21058 27.0659 7.30181L20.5512 13.5619C20.3511 13.7542 20.0252 13.7542 19.8251 13.5619C19.625 13.3696 19.625 13.0565 19.8251 12.8642L25.9755 6.95416L22.9939 4.08668L6.10546 20.3176L9.08955 23.1851L13.1333 19.2969C13.3335 19.1046 13.6593 19.1046 13.8595 19.2969C14.0596 19.4892 14.0596 19.8023 13.8595 19.9946L9.45134 24.2305C9.35127 24.3267 9.21785 24.376 9.08699 24.376Z" fill="black"/>
<path d="M24.849 5.66464C24.7182 5.66464 24.5873 5.61533 24.4873 5.51917C24.2871 5.32686 24.2871 5.01373 24.4873 4.82141L27.964 1.48301C28.1641 1.2907 28.49 1.2907 28.6901 1.48301C28.8903 1.67533 28.8903 1.98846 28.6901 2.18077L25.2134 5.52164C25.1108 5.6178 24.9799 5.66464 24.849 5.66464Z" fill="black"/>
<path d="M29.4856 3.43826C29.3547 3.43826 29.2239 3.38895 29.1238 3.29279L26.5733 0.841997C26.3732 0.649681 26.3732 0.336552 26.5733 0.144237C26.7735 -0.0480789 27.0993 -0.0480789 27.2995 0.144237L29.8499 2.59503C30.0501 2.78734 30.0501 3.10047 29.8499 3.29279C29.7473 3.38895 29.6164 3.43826 29.4856 3.43826Z" fill="black"/>
<path d="M7.00092 25.0442C6.87006 25.0442 6.7392 24.9949 6.63913 24.8987L4.32216 22.6723C4.12202 22.48 4.12202 22.1668 4.32216 21.9745L5.71286 20.6382C5.91299 20.4458 6.23886 20.4458 6.43899 20.6382L8.75596 22.8646C8.9561 23.0569 8.9561 23.37 8.75596 23.5623L7.36527 24.8987C7.2652 24.9949 7.13177 25.0442 7.00092 25.0442ZM5.41008 22.3222L7.00348 23.8533L7.66804 23.2147L6.07464 21.6836L5.41008 22.3222Z" fill="black"/>
<path d="M0.511889 29.0532C0.38103 29.0532 0.250171 29.0039 0.150103 28.9077C-0.0500342 28.7154 -0.0500342 28.4023 0.150103 28.21L5.24846 23.3109C5.4486 23.1185 5.77446 23.1185 5.9746 23.3109C6.17473 23.5032 6.17473 23.8163 5.9746 24.0086L0.87624 28.9077C0.773606 29.0039 0.642747 29.0532 0.511889 29.0532Z" fill="black"/>
<path d="M8.39163 20.1426C8.26077 20.1426 8.12991 20.0933 8.02984 19.9971L6.87007 18.8827C6.66994 18.6904 6.66994 18.3772 6.87007 18.1849C7.07021 17.9926 7.39607 17.9926 7.59621 18.1849L8.75598 19.2994C8.95611 19.4917 8.95611 19.8048 8.75598 19.9971C8.65591 20.0957 8.52249 20.1426 8.39163 20.1426Z" fill="black"/>
<path d="M10.2468 18.36C10.1159 18.36 9.98507 18.3107 9.885 18.2145L8.72524 17.1001C8.5251 16.9077 8.5251 16.5946 8.72524 16.4023C8.92537 16.21 9.25124 16.21 9.45137 16.4023L10.6111 17.5167C10.8113 17.7091 10.8113 18.0222 10.6111 18.2145C10.5085 18.3131 10.3776 18.36 10.2468 18.36Z" fill="black"/>
<path d="M12.1019 16.5798C11.971 16.5798 11.8402 16.5305 11.7401 16.4343L10.5803 15.3199C10.3802 15.1276 10.3802 14.8145 10.5803 14.6221C10.7805 14.4298 11.1063 14.4298 11.3065 14.6221L12.4662 15.7366C12.6664 15.9289 12.6664 16.242 12.4662 16.4343C12.3636 16.5305 12.2328 16.5798 12.1019 16.5798Z" fill="black"/>
<path d="M15.8096 13.0146C15.6787 13.0146 15.5479 12.9653 15.4478 12.8691L14.288 11.7571C14.0879 11.5648 14.0879 11.2517 14.288 11.0594C14.4882 10.8671 14.814 10.8671 15.0142 11.0594L16.1739 12.1738C16.3741 12.3661 16.3741 12.6793 16.1739 12.8716C16.0713 12.9677 15.9405 13.0146 15.8096 13.0146Z" fill="black"/>
<path d="M17.6646 11.2344C17.5337 11.2344 17.4029 11.1851 17.3028 11.0889L16.143 9.9745C15.9429 9.78219 15.9429 9.46906 16.143 9.27674C16.3432 9.08443 16.669 9.08443 16.8692 9.27674L18.0289 10.3912C18.2291 10.5835 18.2291 10.8966 18.0289 11.0889C17.9263 11.1851 17.7954 11.2344 17.6646 11.2344Z" fill="black"/>
<path d="M19.5172 9.45179C19.3863 9.45179 19.2555 9.40248 19.1554 9.30632L17.9956 8.19188C17.7955 7.99957 17.7955 7.68644 17.9956 7.49412C18.1958 7.30181 18.5216 7.30181 18.7218 7.49412L19.8815 8.60856C20.0817 8.80088 20.0817 9.11401 19.8815 9.30632C19.7815 9.40248 19.6506 9.45179 19.5172 9.45179Z" fill="black"/>
<path d="M21.3723 7.66917C21.2414 7.66917 21.1106 7.61986 21.0105 7.5237L19.8507 6.40926C19.6506 6.21694 19.6506 5.90381 19.8507 5.7115C20.0509 5.51918 20.3767 5.51918 20.5769 5.7115L21.7366 6.82594C21.9368 7.01826 21.9368 7.33139 21.7366 7.5237C21.634 7.62233 21.5031 7.66917 21.3723 7.66917Z" fill="black"/>
<path d="M13.4361 22.9114C13.1539 22.9114 12.923 22.6895 12.923 22.4183V14.8564C12.923 13.8036 13.8133 12.948 14.9089 12.948H26.7145C26.9967 12.948 27.2276 13.1699 27.2276 13.4411C27.2276 13.7123 26.9967 13.9342 26.7145 13.9342H14.9089C14.3804 13.9342 13.9493 14.3485 13.9493 14.8564V22.4183C13.9493 22.692 13.7184 22.9114 13.4361 22.9114Z" fill="black"/>
<path d="M20.8104 30C20.4332 30 14.8678 27.5097 13.3258 24.159C13.2103 23.91 13.3283 23.619 13.5875 23.5081C13.8466 23.3971 14.1494 23.5106 14.2649 23.7596C15.4888 26.4175 19.8892 28.602 20.8129 28.9817C21.947 28.5256 27.674 25.6211 27.674 22.4183V14.8564C27.674 14.6788 27.6227 14.5087 27.5252 14.3608C27.3738 14.1315 27.4431 13.8257 27.6817 13.6803C27.9204 13.5348 28.2385 13.6014 28.3899 13.8307C28.5926 14.1364 28.7004 14.4914 28.7004 14.8564V22.4183C28.7004 26.6788 21.1439 30 20.8104 30Z" fill="black"/>
<path d="M19.5941 24.3291C19.4581 24.3291 19.3273 24.2774 19.2323 24.1837L16.8666 21.9104C16.7691 21.8167 16.7152 21.6934 16.7152 21.5628V19.7111C16.7152 19.5114 16.8409 19.3314 17.0308 19.255C17.2233 19.1785 17.4439 19.2205 17.5902 19.361L19.5915 21.2841L24.3101 16.7499C24.4564 16.6094 24.6771 16.5675 24.8695 16.6439C25.0619 16.7203 25.1851 16.9003 25.1851 17.1V18.9517C25.1851 19.0824 25.1312 19.2081 25.0337 19.2993L19.9533 24.1812C19.861 24.2774 19.7301 24.3291 19.5941 24.3291ZM17.7441 21.3581L19.5967 23.1383L24.1639 18.7495V18.2934L19.9585 22.332C19.7583 22.5243 19.4325 22.5243 19.2323 22.332L17.7441 20.902V21.3581Z" fill="black"/>
</svg>
