<svg width="30" height="30" viewBox="0 0 30 30" fill="none" xmlns="http://www.w3.org/2000/svg">
<path d="M29.4822 28.9091H27.9305V16.3636H29.4822C29.5669 16.3638 29.6504 16.342 29.7252 16.3001C29.8001 16.2583 29.864 16.1977 29.9115 16.1236C29.9586 16.0499 29.988 15.9652 29.997 15.8768C30.006 15.7884 29.9944 15.699 29.9632 15.6164L26.8599 7.43455C26.8215 7.33306 26.7552 7.24604 26.6694 7.18477C26.5837 7.1235 26.4824 7.0908 26.3788 7.09091H17.0689C17.0448 7.08836 17.0205 7.08836 16.9965 7.09091L15.5172 5.68364V4.36364H20.1722C20.3094 4.36364 20.4409 4.30617 20.5379 4.20388C20.6349 4.10158 20.6894 3.96285 20.6894 3.81818V0.545455C20.6894 0.400791 20.6349 0.262053 20.5379 0.15976C20.4409 0.0574675 20.3094 0 20.1722 0H15C14.8628 0 14.7313 0.0574675 14.6343 0.15976C14.5373 0.262053 14.4828 0.400791 14.4828 0.545455V5.68364L13.0035 7.09091C12.9795 7.08836 12.9552 7.08836 12.9311 7.09091H3.62115C3.51756 7.0908 3.41633 7.1235 3.33057 7.18477C3.2448 7.24604 3.17846 7.33306 3.14013 7.43455L0.0368098 15.6164C0.00556877 15.699 -0.00605028 15.7884 0.00296451 15.8768C0.0119793 15.9652 0.0413546 16.0499 0.0885319 16.1236C0.135976 16.1977 0.199937 16.2583 0.274792 16.3001C0.349646 16.342 0.433103 16.3638 0.517825 16.3636H2.06949V28.9091H0.517825C0.380649 28.9091 0.249092 28.9666 0.152095 29.0689C0.0550971 29.1711 0.000604385 29.3099 0.000604385 29.4545C0.000604385 29.5992 0.0550971 29.7379 0.152095 29.8402C0.249092 29.9425 0.380649 30 0.517825 30H29.4822C29.6193 30 29.7509 29.9425 29.8479 29.8402C29.9449 29.7379 29.9994 29.5992 29.9994 29.4545C29.9994 29.3099 29.9449 29.1711 29.8479 29.0689C29.7509 28.9666 29.6193 28.9091 29.4822 28.9091ZM26.0271 8.18182L28.7167 15.2727H20.6894V10.9091C20.6924 10.8692 20.6924 10.829 20.6894 10.7891C20.6924 10.7601 20.6924 10.7308 20.6894 10.7018C20.6768 10.6774 20.663 10.6538 20.648 10.6309C20.6264 10.5945 20.6022 10.5598 20.5756 10.5273L18.1033 8.18182H26.0271ZM15.5172 1.09091H19.655V3.27273H15.5172V1.09091ZM3.97286 8.18182H11.8967L9.48643 10.5055C9.46114 10.5359 9.43863 10.5688 9.41919 10.6036C9.40187 10.6278 9.38631 10.6533 9.37264 10.68C9.36969 10.7072 9.36969 10.7346 9.37264 10.7618C9.34834 10.8091 9.32759 10.8584 9.31057 10.9091V15.2727H1.28331L3.97286 8.18182ZM3.10393 16.3636H9.31057V28.9091H3.10393V16.3636ZM12.9311 28.9091V21.2727H17.0689V28.9091H12.9311ZM18.1033 28.9091V20.7273C18.1033 20.5826 18.0488 20.4439 17.9518 20.3416C17.8548 20.2393 17.7233 20.1818 17.5861 20.1818H12.4139C12.2767 20.1818 12.1452 20.2393 12.0482 20.3416C11.9512 20.4439 11.8967 20.5826 11.8967 20.7273V28.9091H10.345V11.1491L15 6.66L19.655 11.1491V28.9091H18.1033ZM20.6894 28.9091V16.3636H26.8961V28.9091H20.6894Z" fill="black"/>
<path d="M7.24168 20.7273H5.1728C5.03562 20.7273 4.90407 20.7847 4.80707 20.887C4.71007 20.9893 4.65558 21.1281 4.65558 21.2727V23.4545C4.65558 23.5992 4.71007 23.7379 4.80707 23.8402C4.90407 23.9425 5.03562 24 5.1728 24H7.24168C7.37886 24 7.51041 23.9425 7.60741 23.8402C7.70441 23.7379 7.7589 23.5992 7.7589 23.4545V21.2727C7.7589 21.1281 7.70441 20.9893 7.60741 20.887C7.51041 20.7847 7.37886 20.7273 7.24168 20.7273ZM6.72446 22.9091H5.69002V21.8182H6.72446V22.9091Z" fill="black"/>
<path d="M24.8272 20.7273H22.7583C22.6211 20.7273 22.4896 20.7847 22.3926 20.887C22.2956 20.9893 22.2411 21.1281 22.2411 21.2727V23.4545C22.2411 23.5992 22.2956 23.7379 22.3926 23.8402C22.4896 23.9425 22.6211 24 22.7583 24H24.8272C24.9644 24 25.0959 23.9425 25.1929 23.8402C25.2899 23.7379 25.3444 23.5992 25.3444 23.4545V21.2727C25.3444 21.1281 25.2899 20.9893 25.1929 20.887C25.0959 20.7847 24.9644 20.7273 24.8272 20.7273ZM24.31 22.9091H23.2755V21.8182H24.31V22.9091Z" fill="black"/>
<path d="M15 12C14.5908 12 14.1908 12.128 13.8506 12.3677C13.5103 12.6074 13.2452 12.9482 13.0886 13.3469C12.932 13.7455 12.891 14.1842 12.9708 14.6075C13.0507 15.0307 13.2477 15.4195 13.5371 15.7246C13.8264 16.0297 14.195 16.2375 14.5964 16.3217C14.9977 16.4059 15.4137 16.3627 15.7917 16.1976C16.1697 16.0324 16.4929 15.7528 16.7202 15.394C16.9475 15.0352 17.0689 14.6133 17.0689 14.1818C17.0689 13.6032 16.8509 13.0482 16.4629 12.639C16.0749 12.2299 15.5487 12 15 12ZM15 15.2727C14.7954 15.2727 14.5954 15.2087 14.4253 15.0889C14.2552 14.969 14.1226 14.7986 14.0443 14.5993C13.966 14.4 13.9455 14.1806 13.9854 13.969C14.0253 13.7574 14.1238 13.563 14.2685 13.4104C14.4132 13.2579 14.5975 13.154 14.7982 13.1119C14.9988 13.0698 15.2068 13.0914 15.3958 13.1739C15.5849 13.2565 15.7464 13.3963 15.8601 13.5757C15.9737 13.7551 16.0344 13.9661 16.0344 14.1818C16.0344 14.4711 15.9254 14.7486 15.7314 14.9532C15.5374 15.1578 15.2743 15.2727 15 15.2727Z" fill="black"/>
</svg>
