<svg width="61" height="62" viewBox="0 0 61 62" fill="none" xmlns="http://www.w3.org/2000/svg">
<path d="M30 61C46.0163 61 59 48.0163 59 32C59 15.9837 46.0163 3 30 3C13.9837 3 1 15.9837 1 32C1 48.0163 13.9837 61 30 61Z" fill="#263238"/>
<path d="M30 54C42.1503 54 52 44.1503 52 32C52 19.8497 42.1503 10 30 10C17.8497 10 8 19.8497 8 32C8 44.1503 17.8497 54 30 54Z" fill="#039BE5"/>
<path d="M30 46C37.732 46 44 39.732 44 32C44 24.268 37.732 18 30 18C22.268 18 16 24.268 16 32C16 39.732 22.268 46 30 46Z" fill="#E53935"/>
<path d="M30 39C33.866 39 37 35.866 37 32C37 28.134 33.866 25 30 25C26.134 25 23 28.134 23 32C23 35.866 26.134 39 30 39Z" fill="#FFEB3B"/>
<path d="M30 62C13.5 62 0 48.6 0 32C0 15.4 13.5 2 30 2C46.5 2 60 15.5 60 32C60 48.5 46.5 62 30 62ZM30 4C14.6 4 2 16.6 2 32C2 47.4 14.6 60 30 60C45.4 60 58 47.4 58 32C58 16.6 45.4 4 30 4Z" fill="#B3E5FC"/>
<path d="M41.7998 20.2L44.3998 16.2C46.1998 13.5 47.4998 10.5 48.4998 7.4C49.0998 5.4 50.9998 4 53.1998 4C54.4998 4 55.6998 4.5 56.5998 5.4L41.7998 20.2Z" fill="#B71C1C"/>
<path d="M56.6002 5.3C57.5002 6.3 58.0002 7.5 58.0002 8.8C58.0002 11 56.6002 12.9 54.5002 13.6C51.4002 14.6 48.5002 15.9 45.7002 17.7L41.7002 20.3L56.6002 5.3Z" fill="#E53935"/>
<path d="M58.2831 2.30115L29.292 31.2923L30.7062 32.7065L59.6973 3.71535L58.2831 2.30115Z" fill="#BDBDBD"/>
<path d="M56.1996 27.2C55.6996 27.2 55.1996 27.1 54.5996 27C51.4996 26 48.2996 25.4 45.0996 25.3C44.4996 25.3 44.0996 24.8 44.0996 24.3C53.6996 22.6 59.8996 22.6 59.8996 22.6L60.8996 22.7C60.7996 23.5 60.6996 24.3 60.1996 25.1C59.2996 26.4 57.7996 27.2 56.1996 27.2Z" fill="#18FFFF"/>
<path d="M37.7005 18.1C37.2005 18.1 36.7005 17.7 36.7005 17.2C36.5005 14.4 35.7005 11.3 34.4005 7.8C33.6005 5.6 34.3005 3.3 36.0005 2C37.0005 1.2 38.3005 0.900004 39.5005 1C40.0005 4.2 38.1005 16.2 37.7005 18.1C37.7005 18.1 37.7005 18 37.7005 18.1Z" fill="#18FFFF"/>
<path d="M32.8999 29.1C37.7999 21 40.2999 11.5 39.8999 2H38.8999C39.2999 11.3 36.8999 20.6 32.0999 28.5C31.4999 29.1 29.2999 31.3 29.2999 31.3C28.3999 32.2 29.7999 33.7 30.6999 32.7C30.6999 32.7 32.9999 30.4 33.5999 29.8C41.4999 25 50.5999 22.6 59.9999 23V22C50.4999 21.7 40.9999 24.1 32.8999 29.1Z" fill="#546E7A"/>
</svg>
