<svg width="45" height="36" viewBox="0 0 45 36" fill="none" xmlns="http://www.w3.org/2000/svg">
<path d="M24.4292 6.19727V2.51703C24.4292 1.5815 23.6039 0.820404 22.5897 0.820404C21.5754 0.820404 20.7502 1.5815 20.7502 2.51703V6.19727V9.13229H24.4292V6.19727Z" fill="white"/>
<path d="M25.326 6.61093V9.1323H27.161C27.4087 9.1323 27.6094 9.31759 27.6094 9.54596C27.6094 9.77441 27.4087 9.95961 27.161 9.95961H24.8776H20.3018H18.0184C17.7708 9.95961 17.5699 9.77441 17.5699 9.54596C17.5699 9.31759 17.7707 9.1323 18.0184 9.1323H19.8534V6.61093H0.976074V30.6001H44.024V6.61093H25.326ZM9.94968 13.2286C11.9248 13.2286 13.5317 14.6245 13.5317 16.3401C13.5317 17.3089 12.9539 18.8683 11.8831 19.8502C11.2955 20.389 10.6307 20.6735 9.95992 20.6735C9.95561 20.6735 9.9514 20.6735 9.947 20.6735C8.89455 20.6684 7.93149 20.0883 7.23563 19.0401C6.7018 18.236 6.35689 17.1763 6.35689 16.3401C6.35708 14.6245 7.96872 13.2286 9.94968 13.2286ZM17.1479 26.0816C17.135 26.5175 17.119 27.0601 17.119 27.7048C17.119 27.9334 16.9182 28.1185 16.6705 28.1185H3.21811C2.97053 28.1185 2.76965 27.9334 2.76965 27.7048C2.76965 27.0484 2.75309 26.4987 2.73969 26.057C2.66629 23.6241 2.76524 23.4785 5.38895 22.161C5.73836 21.9857 6.13438 21.7868 6.58638 21.5534C6.72812 21.4803 6.90163 21.4834 7.04021 21.562L9.80105 23.1267C9.91207 23.1724 10.0421 23.1625 10.144 23.0999C10.1485 23.0973 10.153 23.0945 10.1575 23.0919L12.848 21.5624C12.9867 21.4834 13.1608 21.4801 13.3027 21.5536C13.7359 21.7778 14.1186 21.971 14.4563 22.1414C17.1197 23.4856 17.2202 23.6328 17.1479 26.0816ZM26.5358 28.1184H21.1547C20.9071 28.1184 20.7062 27.9333 20.7062 27.7047C20.7062 27.4763 20.9071 27.2911 21.1547 27.2911H26.5358C26.7835 27.2911 26.9843 27.4763 26.9843 27.7047C26.9842 27.9333 26.7835 28.1184 26.5358 28.1184ZM39.0914 28.1184H31.0198C30.7721 28.1184 30.5714 27.9333 30.5714 27.7047C30.5714 27.4763 30.7721 27.2911 31.0198 27.2911H39.0914C39.3391 27.2911 39.5398 27.4763 39.5398 27.7047C39.5398 27.9333 39.3391 28.1184 39.0914 28.1184ZM39.0914 23.9824H22.0515C21.8039 23.9824 21.6031 23.7972 21.6031 23.5687C21.6031 23.3403 21.8039 23.1551 22.0515 23.1551H39.0914C39.3391 23.1551 39.5398 23.3403 39.5398 23.5687C39.5398 23.7972 39.3391 23.9824 39.0914 23.9824ZM39.0914 19.8463H27.4325C27.1849 19.8463 26.9842 19.6611 26.9842 19.4327C26.9842 19.2042 27.1849 19.019 27.4325 19.019H39.0914C39.3391 19.019 39.5398 19.2042 39.5398 19.4327C39.5398 19.6611 39.3391 19.8463 39.0914 19.8463Z" fill="white"/>
</svg>
