<svg width="67" height="54" viewBox="0 0 67 54" fill="none" xmlns="http://www.w3.org/2000/svg">
<path d="M12.7188 22.5938H6.78125C3.50227 22.5938 0.84375 25.2523 0.84375 28.5312V47.8281C0.84375 51.1071 3.50227 53.7656 6.78125 53.7656H18.6562V28.5312C18.6562 25.2523 15.9977 22.5938 12.7188 22.5938Z" fill="#1D1D1B"/>
<path d="M36.4688 0.328125H30.5312C27.2523 0.328125 24.5938 2.98664 24.5938 6.26562V53.7656H42.4062V6.26562C42.4062 2.98664 39.7477 0.328125 36.4688 0.328125Z" fill="white"/>
<path d="M60.2188 30.0156H54.2812C51.0023 30.0156 48.3438 32.6741 48.3438 35.9531V53.7656H60.2188C63.4977 53.7656 66.1562 51.1071 66.1562 47.8281V35.9531C66.1562 32.6741 63.4977 30.0156 60.2188 30.0156Z" fill="#E64D00"/>
</svg>
