<svg width="32" height="35" viewBox="0 0 32 35" fill="none" xmlns="http://www.w3.org/2000/svg">
<g opacity="0.2">
<path opacity="0.2" d="M28.2499 3.40063H3.21147C1.48304 3.40063 0.081665 4.80201 0.081665 6.53044V10.8339V31.5689C0.081665 33.2973 1.48304 34.6987 3.21147 34.6987H28.2499C29.9784 34.6987 31.3797 33.2973 31.3797 31.5689V10.8339V6.53044C31.3797 4.80201 29.9784 3.40063 28.2499 3.40063Z" fill="#231F20"/>
</g>
<path d="M28.2499 1.83594H3.21147C1.48304 1.83594 0.081665 3.23731 0.081665 4.96575V9.26923V30.0042C0.081665 31.7326 1.48304 33.134 3.21147 33.134H28.2499C29.9784 33.134 31.3797 31.7326 31.3797 30.0042V9.26923V4.96575C31.3797 3.23731 29.9784 1.83594 28.2499 1.83594Z" fill="#009966"/>
<g opacity="0.2">
<path opacity="0.2" d="M28.2499 6.53052H3.21143V31.569H28.2499V6.53052Z" fill="#231F20"/>
</g>
<path d="M28.2499 4.96558H3.21143V30.004H28.2499V4.96558Z" fill="white"/>
<path d="M23.5552 11.2253H7.90613V12.7902H23.5552V11.2253Z" fill="#009966"/>
<path d="M23.5552 14.355H7.90613V15.9199H23.5552V14.355Z" fill="#E0E0D1"/>
<path d="M23.5552 17.4849H7.90613V19.0498H23.5552V17.4849Z" fill="#E0E0D1"/>
<path d="M23.5552 20.6147H7.90613V22.1796H23.5552V20.6147Z" fill="#E0E0D1"/>
<path d="M23.5552 23.7444H7.90613V25.3093H23.5552V23.7444Z" fill="#009966"/>
<g opacity="0.2">
<path opacity="0.2" d="M19.6429 1.83594H11.8184H9.47107V4.18329V4.96575V5.7482C9.47107 7.04472 10.5219 8.09555 11.8184 8.09555H19.6429C20.9395 8.09555 21.9903 7.04472 21.9903 5.7482V4.96575V4.18329V1.83594H19.6429Z" fill="#231F20"/>
</g>
<path d="M19.6429 0.270996H11.8184H9.47107V2.61835V3.4008V4.18326C9.47107 5.47978 10.5219 6.53061 11.8184 6.53061H19.6429C20.9395 6.53061 21.9903 5.47978 21.9903 4.18326V3.4008V2.61835V0.270996H19.6429Z" fill="#4F5D73"/>
</svg>
