<svg xmlns="http://www.w3.org/2000/svg" x="0px" y="0px"
width="64" height="64"
viewBox="0 0 172 172"
style=" fill:#000000;"><g transform=""><g fill="none" fill-rule="nonzero" stroke="none" stroke-width="1" stroke-linecap="butt" stroke-linejoin="miter" stroke-miterlimit="10" stroke-dasharray="" stroke-dashoffset="0" font-family="none" font-weight="none" font-size="none" text-anchor="none" style="mix-blend-mode: normal"><path d="M0,172v-172h172v172z" fill="none"></path><path d="M86,172c-47.49649,0 -86,-38.50351 -86,-86v0c0,-47.49649 38.50351,-86 86,-86h0c47.49649,0 86,38.50351 86,86v0c0,47.49649 -38.50351,86 -86,86z" fill="#e5f5ef"></path><g><path d="M55.91567,133.29731l-21.5,-12.89785c-5.35565,-4.59025 -6.66715,-13.92985 -2.15,-19.35l15.05,-23.65c5.719,-6.8628 13.7643,-10.75215 22.69755,-10.75215h16.00245h16.00245c8.93325,0 17.40425,3.9689 23.12325,10.82955l14.79845,24.209c4.62465,5.5513 3.79045,13.81805 -1.85115,18.3309l-24.123,13.28055z" fill="#009966"></path><path d="M55.91352,135.44946c-0.37625,0 -0.75895,-0.0989 -1.1051,-0.30745l-21.5,-12.9c-0.1032,-0.06235 -0.2021,-0.1333 -0.2924,-0.21285c-6.37905,-5.4696 -7.55295,-16.0218 -2.5026,-22.23745l14.54905,-23.4479c0.0516,-0.08385 0.1118,-0.16555 0.1763,-0.2408c5.9641,-7.1595 15.82185,-11.6057 25.7269,-11.6057h30.1c9.8298,0 19.28765,4.3086 25.3012,11.524c0.05805,0.07095 0.11395,0.14405 0.1634,0.2236l14.97905,23.5382c2.4553,3.01215 3.61845,7.13585 3.19275,11.34125c-0.44505,4.39675 -2.537,8.38715 -5.74265,10.95425c-0.11825,0.0946 -0.24725,0.1763 -0.3827,0.24295l-21.5,10.74785c-1.06425,0.52675 -2.35425,0.0989 -2.8853,-0.96105c-0.53105,-1.0621 -0.0989,-2.35425 0.96105,-2.8853l21.28715,-10.64035c2.2145,-1.8533 3.6636,-4.71495 3.98395,-7.88835c0.3139,-3.11535 -0.52675,-6.1318 -2.3091,-8.27105c-0.05805,-0.0688 -0.11395,-0.1419 -0.1634,-0.22145l-14.97475,-23.53175c-5.2116,-6.18555 -13.39235,-9.87495 -21.91065,-9.87495h-30.1c-8.61075,0 -17.1527,3.80765 -22.3299,9.9459l-14.5426,23.44145c-0.0516,0.08385 -0.1118,0.16555 -0.1763,0.24295c-3.6421,4.3688 -2.77135,12.2034 1.7673,16.22605l21.3366,12.80325c1.0191,0.6106 1.34805,1.9307 0.73745,2.9498c-0.4042,0.67295 -1.11585,1.0449 -1.8447,1.0449z" fill="#8d6c9f"></path><path d="M103.21567,45.14946c0,-9.5933 -7.6067,-17.20215 -17.2,-17.20215c-9.5933,0 -17.2,7.60885 -17.2,17.20215c0,12.02495 7.6067,25.8 17.2,25.8c9.5933,0 17.2,-13.77505 17.2,-25.8z" fill="#faefde"></path><path d="M86.01567,73.09946c-11.07465,0 -19.35,-14.75545 -19.35,-27.95c0,-10.85105 8.49895,-19.35215 19.35,-19.35215c10.85105,0 19.35,8.5011 19.35,19.35215c0,13.19455 -8.27535,27.95 -19.35,27.95zM86.01567,30.09731c-8.43875,0 -15.05,6.61125 -15.05,15.05215c0,10.7113 6.7123,23.65 15.05,23.65c8.3377,0 15.05,-12.9387 15.05,-23.65c0,-8.4409 -6.61125,-15.05215 -15.05,-15.05215z" fill="#8d6c9f"></path><path d="M116.62522,96.74946h-61.22125c-3.18845,0 -5.6889,2.7391 -5.4008,5.91465l3.31315,36.4511c0.2537,2.79285 2.59505,4.9321 5.4008,4.9321h54.5928c2.80575,0 5.1471,-2.13925 5.4008,-4.9321l3.31315,-36.4511c0.29025,-3.17555 -2.2102,-5.91465 -5.39865,-5.91465z" fill="#b5c4e0"></path><path d="M120.41567,133.29946h-68.80215l2.15,10.74785h62.35215z" fill="#acb7d0"></path><path d="M113.65392,146.19731h-55.27865c-3.74745,0 -6.8284,-2.81435 -7.16595,-6.5446l-3.3841,-37.20575c-0.18275,-2.01025 0.49235,-4.01405 1.8533,-5.50615c1.3588,-1.4878 3.29595,-2.34135 5.31265,-2.34135h62.0447c2.0167,0 3.95385,0.85355 5.3148,2.34565c1.3588,1.4878 2.03605,3.49375 1.8533,5.504l-3.38195,37.20575c-0.33755,3.7281 -3.42065,6.54245 -7.1681,6.54245zM54.99117,98.89946c-0.82345,0 -1.5824,0.3354 -2.13925,0.9417c-0.5547,0.60845 -0.81915,1.39535 -0.74605,2.2145l3.38195,37.20575c0.13545,1.50285 1.376,2.6359 2.88315,2.6359h55.2808c1.5093,0 2.7477,-1.1309 2.8853,-2.6359l3.38195,-37.20575c0.07525,-0.81915 -0.1892,-1.60605 -0.74605,-2.21235c-0.5504,-0.60845 -1.3115,-0.94385 -2.13495,-0.94385z" fill="#8d6c9f"></path><path d="M58.06567,109.64731h-8.13775c-2.62945,0 -4.76225,2.1328 -4.76225,4.76225v7.6755c0,2.62945 2.1328,4.76225 4.76225,4.76225h8.13775c4.74935,0 8.6,-3.85065 8.6,-8.6v0c0,-4.74935 -3.85065,-8.6 -8.6,-8.6z" fill="#faefde"></path><path d="M58.06567,128.99731h-8.60215c-3.55395,0 -6.44785,-2.89175 -6.44785,-6.4457v-8.60645c0,-3.55395 2.89175,-6.44785 6.44785,-6.44785h8.60215c5.92755,0 10.75,4.82245 10.75,10.75c0,5.92755 -4.8246,10.75 -10.75,10.75zM49.46137,111.79731c-1.18465,0 -2.14785,0.9632 -2.14785,2.14785v8.60645c0,1.18465 0.9632,2.1457 2.14785,2.1457h8.6043c3.5561,0 6.45,-2.8939 6.45,-6.45c0,-3.5561 -2.8939,-6.45 -6.45,-6.45z" fill="#8d6c9f"></path><path d="M113.96567,109.64731h8.6c2.37575,0 4.3,1.92425 4.3,4.3v8.6c0,2.37575 -1.92425,4.3 -4.3,4.3h-8.6c-4.74935,0 -8.6,-3.85065 -8.6,-8.6v0c0,-4.74935 3.8485,-8.6 8.6,-8.6z" fill="#faefde"></path><path d="M122.56567,128.99731h-8.6c-5.92755,0 -10.75,-4.82245 -10.75,-10.75c0,-5.92755 4.82245,-10.75 10.75,-10.75h8.6c3.5561,0 6.45,2.8939 6.45,6.45v8.6c0,3.5561 -2.8939,6.45 -6.45,6.45zM113.96567,111.79731c-3.5561,0 -6.45,2.8939 -6.45,6.45c0,3.5561 2.8939,6.45 6.45,6.45h8.6c1.18465,0 2.15,-0.9632 2.15,-2.15v-8.6c0,-1.1868 -0.96535,-2.15 -2.15,-2.15zM64.51567,137.59731c-1.1868,0 -2.15,-0.96105 -2.15,-2.15v-4.3c0,-1.18895 0.9632,-2.15 2.15,-2.15c1.1868,0 2.15,0.96105 2.15,2.15v4.3c0,1.18895 -0.9632,2.15 -2.15,2.15zM75.26567,137.59731c-1.1868,0 -2.15,-0.96105 -2.15,-2.15v-4.3c0,-1.18895 0.9632,-2.15 2.15,-2.15c1.1868,0 2.15,0.96105 2.15,2.15v4.3c0,1.18895 -0.9632,2.15 -2.15,2.15zM86.01567,137.59731c-1.1868,0 -2.15,-0.96105 -2.15,-2.15v-4.3c0,-1.18895 0.9632,-2.15 2.15,-2.15c1.1868,0 2.15,0.96105 2.15,2.15v4.3c0,1.18895 -0.9632,2.15 -2.15,2.15zM96.76567,137.59946v0c-1.18895,0 -2.15,-0.9632 -2.15,-2.15v-4.30215c0,-1.18895 0.9632,-2.15 2.15,-2.15v0c1.18895,0 2.15,0.9632 2.15,2.15v4.30215c0,1.18895 -0.9632,2.15 -2.15,2.15zM107.51567,137.59731c-1.1868,0 -2.15,-0.96105 -2.15,-2.15v-4.29785c0,-1.18895 0.9632,-2.15 2.15,-2.15c1.1868,0 2.15,0.96105 2.15,2.15v4.29785c0,1.18895 -0.9632,2.15 -2.15,2.15z" fill="#8d6c9f"></path></g><path d="" fill="none"></path></g></g></svg>