<svg width="100" height="100" viewBox="0 0 100 100" fill="none" xmlns="http://www.w3.org/2000/svg">
<path d="M91.667 63.4167L75.0003 84.2501L70.0002 98.8335L81.667 92.5835L98.3337 71.7501L91.667 63.4167Z" fill="#9BEAF9"/>
<path d="M91.667 4.08334H1.66669V24.9167H91.667V4.08334Z" fill="#009966"/>
<path d="M68.3336 81.2501C68.3336 80.6976 68.158 80.1677 67.8454 79.777C67.5329 79.3863 67.1089 79.1668 66.6669 79.1668H3.33335V25H90.0003V54.1667C90.0003 54.7193 90.1759 55.2492 90.4885 55.6399C90.801 56.0306 91.225 56.2501 91.667 56.2501C92.109 56.2501 92.5329 56.0306 92.8455 55.6399C93.1581 55.2492 93.3337 54.7193 93.3337 54.1667V2.08334C93.3337 1.5308 93.1581 1.0009 92.8455 0.610196C92.5329 0.219494 92.109 0 91.667 0H1.66667C1.22464 0 0.800719 0.219494 0.488157 0.610196C0.175595 1.0009 0 1.5308 0 2.08334V81.2501C0 81.8027 0.175595 82.3326 0.488157 82.7233C0.800719 83.114 1.22464 83.3335 1.66667 83.3335H66.6669C67.1089 83.3335 67.5329 83.114 67.8454 82.7233C68.158 82.3326 68.3336 81.8027 68.3336 81.2501ZM90.0003 4.16667V20.8334H3.33335V4.16667H90.0003Z" fill="black"/>
<path d="M10 16.6667C11.841 16.6667 13.3334 14.8012 13.3334 12.5C13.3334 10.1988 11.841 8.33334 10 8.33334C8.15908 8.33334 6.66669 10.1988 6.66669 12.5C6.66669 14.8012 8.15908 16.6667 10 16.6667Z" fill="black"/>
<path d="M20.0001 16.6667C21.841 16.6667 23.3334 14.8012 23.3334 12.5C23.3334 10.1988 21.841 8.33334 20.0001 8.33334C18.1591 8.33334 16.6667 10.1988 16.6667 12.5C16.6667 14.8012 18.1591 16.6667 20.0001 16.6667Z" fill="black"/>
<path d="M30.0001 16.6667C31.841 16.6667 33.3334 14.8012 33.3334 12.5C33.3334 10.1988 31.841 8.33334 30.0001 8.33334C28.1591 8.33334 26.6667 10.1988 26.6667 12.5C26.6667 14.8012 28.1591 16.6667 30.0001 16.6667Z" fill="black"/>
<path d="M80.0003 18.75H86.667C87.109 18.75 87.5329 18.5305 87.8455 18.1398C88.1581 17.7491 88.3337 17.2192 88.3337 16.6667V8.33334C88.3337 7.7808 88.1581 7.2509 87.8455 6.8602C87.5329 6.46949 87.109 6.25 86.667 6.25H80.0003C79.5583 6.25 79.1343 6.46949 78.8218 6.8602C78.5092 7.2509 78.3336 7.7808 78.3336 8.33334V16.6667C78.3336 17.2192 78.5092 17.7491 78.8218 18.1398C79.1343 18.5305 79.5583 18.75 80.0003 18.75ZM81.667 10.4167H85.0003V14.5833H81.667V10.4167Z" fill="black"/>
<path d="M99.512 67.2772L92.8453 58.9439C92.5328 58.5533 92.1089 58.3339 91.667 58.3339C91.225 58.3339 90.8012 58.5533 90.4886 58.9439L73.8219 79.7772C73.7007 79.94 73.6016 80.1265 73.5286 80.3293L73.5102 80.3168L66.8435 96.9835C66.6868 97.3747 66.6325 97.8177 66.6884 98.2496C66.7443 98.6815 66.9076 99.0805 67.1552 99.3898C67.4027 99.6992 67.7218 99.9034 68.0674 99.9733C68.4129 100.043 68.7673 99.9753 69.0802 99.7793L82.4136 91.446L82.4036 91.4231C82.5658 91.3317 82.715 91.2079 82.8453 91.0564L99.512 70.2231C99.8245 69.8324 100 69.3026 100 68.7501C100 68.1977 99.8245 67.6679 99.512 67.2772ZM95.977 68.7501L94.9103 70.0835L90.6003 64.696L91.667 63.3626L95.977 68.7501ZM75.4569 84.7668L78.8536 89.0127L72.0602 93.2585L75.4569 84.7668ZM81.6669 86.6418L77.3569 81.2502L88.2436 67.6418L92.5536 73.0293L81.6669 86.6418Z" fill="black"/>
<path d="M48.3335 33.3334H25.0001C24.558 33.3334 24.1341 33.5529 23.8216 33.9436C23.509 34.3343 23.3334 34.8642 23.3334 35.4167C23.3334 35.9692 23.509 36.4992 23.8216 36.8899C24.1341 37.2806 24.558 37.5 25.0001 37.5H48.3335C48.7755 37.5 49.1994 37.2806 49.512 36.8899C49.8246 36.4992 50.0002 35.9692 50.0002 35.4167C50.0002 34.8642 49.8246 34.3343 49.512 33.9436C49.1994 33.5529 48.7755 33.3334 48.3335 33.3334Z" fill="black"/>
<path d="M48.3335 41.6667H25.0001C24.558 41.6667 24.1341 41.8862 23.8216 42.2769C23.509 42.6676 23.3334 43.1975 23.3334 43.7501C23.3334 44.3026 23.509 44.8325 23.8216 45.2232C24.1341 45.6139 24.558 45.8334 25.0001 45.8334H48.3335C48.7755 45.8334 49.1994 45.6139 49.512 45.2232C49.8246 44.8325 50.0002 44.3026 50.0002 43.7501C50.0002 43.1975 49.8246 42.6676 49.512 42.2769C49.1994 41.8862 48.7755 41.6667 48.3335 41.6667Z" fill="black"/>
<path d="M48.3335 50.0001H11.6667C11.2247 50.0001 10.8007 50.2196 10.4882 50.6103C10.1756 51.001 10 51.5309 10 52.0834C10 52.6359 10.1756 53.1658 10.4882 53.5565C10.8007 53.9472 11.2247 54.1667 11.6667 54.1667H48.3335C48.7755 54.1667 49.1995 53.9472 49.512 53.5565C49.8246 53.1658 50.0002 52.6359 50.0002 52.0834C50.0002 51.5309 49.8246 51.001 49.512 50.6103C49.1995 50.2196 48.7755 50.0001 48.3335 50.0001Z" fill="black"/>
<path d="M48.3335 58.3334H11.6667C11.2247 58.3334 10.8007 58.5529 10.4882 58.9436C10.1756 59.3343 10 59.8642 10 60.4167C10 60.9693 10.1756 61.4992 10.4882 61.8899C10.8007 62.2806 11.2247 62.5001 11.6667 62.5001H48.3335C48.7755 62.5001 49.1995 62.2806 49.512 61.8899C49.8246 61.4992 50.0002 60.9693 50.0002 60.4167C50.0002 59.8642 49.8246 59.3343 49.512 58.9436C49.1995 58.5529 48.7755 58.3334 48.3335 58.3334Z" fill="black"/>
<path d="M48.3335 66.6667H11.6667C11.2247 66.6667 10.8007 66.8862 10.4882 67.2769C10.1756 67.6676 10 68.1975 10 68.7501C10 69.3026 10.1756 69.8325 10.4882 70.2232C10.8007 70.6139 11.2247 70.8334 11.6667 70.8334H48.3335C48.7755 70.8334 49.1995 70.6139 49.512 70.2232C49.8246 69.8325 50.0002 69.3026 50.0002 68.7501C50.0002 68.1975 49.8246 67.6676 49.512 67.2769C49.1995 66.8862 48.7755 66.6667 48.3335 66.6667Z" fill="black"/>
<path d="M11.6667 45.8334H18.3334C18.7754 45.8334 19.1993 45.6139 19.5119 45.2232C19.8245 44.8325 20.0001 44.3026 20.0001 43.7501V35.4167C20.0001 34.8642 19.8245 34.3343 19.5119 33.9436C19.1993 33.5529 18.7754 33.3334 18.3334 33.3334H11.6667C11.2247 33.3334 10.8007 33.5529 10.4882 33.9436C10.1756 34.3343 10 34.8642 10 35.4167V43.7501C10 44.3026 10.1756 44.8325 10.4882 45.2232C10.8007 45.6139 11.2247 45.8334 11.6667 45.8334ZM13.3334 37.5H16.6667V41.6667H13.3334V37.5Z" fill="black"/>
<path d="M53.3335 50.0001C53.3335 53.7085 54.2133 57.3336 55.8615 60.417C57.5097 63.5004 59.8524 65.9037 62.5933 67.3228C65.3342 68.742 68.3502 69.1133 71.2599 68.3898C74.1697 67.6663 76.8424 65.8806 78.9402 63.2583C81.038 60.6361 82.4666 57.2952 83.0454 53.658C83.6242 50.0209 83.3271 46.2509 82.1918 42.8247C81.0565 39.3986 79.1339 36.4703 76.6672 34.41C74.2004 32.3497 71.3003 31.25 68.3336 31.25C64.3567 31.2555 60.5439 33.2328 57.7318 36.7479C54.9197 40.263 53.3379 45.0289 53.3335 50.0001ZM71.6236 47.9167H65.0436C65.3569 39.7917 67.4402 35.4167 68.3336 35.4167C69.2269 35.4167 71.3103 39.7917 71.6236 47.9167ZM68.3336 64.5834C67.4402 64.5834 65.3569 60.2084 65.0436 52.0834H71.6219C71.3103 60.2084 69.2269 64.5834 68.3336 64.5834ZM63.5002 36.748C62.4001 40.3167 61.7942 44.0937 61.7086 47.9167H56.8002C57.0823 45.5039 57.8432 43.2177 59.0135 41.2669C60.1838 39.316 61.7263 37.7624 63.5002 36.748ZM56.8002 52.0834H61.7086C61.7942 55.9065 62.4001 59.6834 63.5002 63.2522C61.7263 62.2377 60.1838 60.6842 59.0135 58.7333C57.8432 56.7824 57.0823 54.4962 56.8002 52.0834ZM73.1669 63.2522C74.2671 59.6834 74.873 55.9065 74.9586 52.0834H79.867C79.5849 54.4962 78.824 56.7824 77.6537 58.7333C76.4834 60.6842 74.9409 62.2377 73.1669 63.2522ZM79.867 47.9167H74.9586C74.873 44.0937 74.2671 40.3167 73.1669 36.748C74.9409 37.7624 76.4834 39.316 77.6537 41.2669C78.824 43.2177 79.5849 45.5039 79.867 47.9167Z" fill="black"/>
</svg>
