<svg xmlns="http://www.w3.org/2000/svg" x="0px" y="0px"
width="64" height="64"
viewBox="0 0 172 172"
style=" fill:#000000;"><g fill="none" fill-rule="nonzero" stroke="none" stroke-width="1" stroke-linecap="butt" stroke-linejoin="miter" stroke-miterlimit="10" stroke-dasharray="" stroke-dashoffset="0" font-family="none" font-weight="none" font-size="none" text-anchor="none" style="mix-blend-mode: normal"><path d="M0,172v-172h172v172z" fill="none"></path><path d="M86,172c-47.49649,0 -86,-38.50351 -86,-86v0c0,-47.49649 38.50351,-86 86,-86v0c47.49649,0 86,38.50351 86,86v0c0,47.49649 -38.50351,86 -86,86z" fill="#e5f5ef"></path><g><path d="M47.62319,38.42907h91.37336v62.13388h-91.37336z" fill="#009966"></path><path d="M137.16908,65.05527l-35.50769,35.50769h33.29645l2.21124,-2.21124zM137.16908,42.86982l-57.69314,57.69314h13.30396l44.38918,-44.38918zM121.63561,38.42907l-62.13388,62.13388h11.09273l62.13388,-62.13388z" fill="#1abc9c"></path><rect x="24.05967" y="55.0286" transform="scale(1.82747,1.82747)" width="54" height="6" rx="2" ry="2" fill="#666666"></rect><path d="M47.62319,45.73894c-5.04641,0 -9.13734,4.09092 -9.13734,9.13734c0,5.04641 4.09092,9.13734 9.13734,9.13734c5.04641,0 9.13734,-4.09092 9.13734,-9.13734c0,-5.04641 -4.09092,-9.13734 -9.13734,-9.13734z" fill="#f1c40f"></path><path d="M60.41546,104.21789v-20.7783l4.49557,3.0336c3.02308,2.03939 6.58716,3.12771 10.23382,3.12497h8.11395c2.52321,0 4.56867,-2.04546 4.56867,-4.56867v0c0,-2.52321 -2.04546,-4.56867 -4.56867,-4.56867h-5.4824c-1.93322,-0.02733 -3.80794,-0.66716 -5.35448,-1.82747l-7.60226,-5.4824c-1.72414,-1.25116 -3.65376,-2.19123 -5.7017,-2.77775l-2.50363,-0.71271c-4.69411,-1.34071 -9.66978,-1.34071 -14.36389,0v0c-3.65389,1.05823 -6.88647,3.23032 -9.24698,6.21339v0c-2.36891,2.96883 -3.65778,6.655 -3.65493,10.45311v16.97717c0,2.52321 2.04546,4.56867 4.56867,4.56867v0c2.52321,0 4.56867,-2.04546 4.56867,-4.56867v0.91373l-1.57162,34.46603c-0.06998,1.49782 0.47659,2.95894 1.51242,4.04311c1.03583,1.08417 2.47052,1.69677 3.96998,1.69513v0c2.92395,0.00366 5.33621,-2.28799 5.4824,-5.20828l1.57162,-31.34106v0l1.57162,31.34106c0.1462,2.92029 2.55845,5.21194 5.4824,5.20828v0c1.49946,0.00163 2.93415,-0.61096 3.96998,-1.69513c1.03583,-1.08417 1.5824,-2.54529 1.51242,-4.04311z" fill="#b5c4e0"></path><path d="M120.72187,51.33099c1.00928,0 1.82747,-0.81818 1.82747,-1.82747v-3.65493c0,-1.00928 -0.81818,-1.82747 -1.82747,-1.82747c-1.00928,0 -1.82747,0.81818 -1.82747,1.82747v3.65493c0,1.00928 0.81818,1.82747 1.82747,1.82747zM111.58454,51.33099c1.00928,0 1.82747,-0.81818 1.82747,-1.82747v-3.65493c0,-1.00928 -0.81818,-1.82747 -1.82747,-1.82747c-1.00928,0 -1.82747,0.81818 -1.82747,1.82747v3.65493c0,1.00928 0.81818,1.82747 1.82747,1.82747zM129.85921,51.33099c1.00928,0 1.82747,-0.81818 1.82747,-1.82747v-3.65493c0,-1.00928 -0.81818,-1.82747 -1.82747,-1.82747c-1.00928,0 -1.82747,0.81818 -1.82747,1.82747v3.65493c0,1.00928 0.81818,1.82747 1.82747,1.82747zM102.4472,44.02112c-1.00928,0 -1.82747,0.81818 -1.82747,1.82747v3.65493c0,1.00928 0.81818,1.82747 1.82747,1.82747c1.00928,0 1.82747,-0.81818 1.82747,-1.82747v-3.65493c0,-1.00928 -0.81818,-1.82747 -1.82747,-1.82747zM93.30987,44.02112c-1.00928,0 -1.82747,0.81818 -1.82747,1.82747v3.65493c0,1.00928 0.81818,1.82747 1.82747,1.82747c1.00928,0 1.82747,-0.81818 1.82747,-1.82747v-3.65493c0,-1.00928 -0.81818,-1.82747 -1.82747,-1.82747zM84.17253,44.02112c-1.00928,0 -1.82747,0.81818 -1.82747,1.82747v3.65493c0,1.00928 0.81818,1.82747 1.82747,1.82747c1.00928,0 1.82747,-0.81818 1.82747,-1.82747v-3.65493c0,-1.00928 -0.81818,-1.82747 -1.82747,-1.82747zM75.0352,44.02112c-1.00928,0 -1.82747,0.81818 -1.82747,1.82747v3.65493c0,1.00928 0.81818,1.82747 1.82747,1.82747c1.00928,0 1.82747,-0.81818 1.82747,-1.82747v-3.65493c0,-1.00928 -0.81818,-1.82747 -1.82747,-1.82747zM65.89786,44.02112c-1.00928,0 -1.82747,0.81818 -1.82747,1.82747v3.65493c0,1.00928 0.81818,1.82747 1.82747,1.82747c1.00928,0 1.82747,-0.81818 1.82747,-1.82747v-3.65493c0,-1.00928 -0.81818,-1.82747 -1.82747,-1.82747zM75.0352,98.84513h-7.30987c-1.00928,0 -1.82747,0.81818 -1.82747,1.82747c0,1.00928 0.81818,1.82747 1.82747,1.82747h7.30987c1.00928,0 1.82747,-0.81818 1.82747,-1.82747c0,-1.00928 -0.81818,-1.82747 -1.82747,-1.82747z" fill="#666666"></path><path d="M140.82401,99.1558v-56.96215c0,-3.02785 -2.45455,-5.4824 -5.4824,-5.4824h-84.06349c-3.02785,0 -5.4824,2.45455 -5.4824,5.4824v1.82747c-5.24586,0.91898 -9.07278,5.47458 -9.07278,10.80033c0,5.32575 3.82692,9.88135 9.07278,10.80033v1.46197c-1.3651,0.18038 -2.715,0.46136 -4.0387,0.84063c-4.01792,1.14118 -7.57753,3.51212 -10.17899,6.7799c-2.62954,3.303 -4.05991,7.40082 -4.05698,11.62269v16.97717c-0.00218,2.15162 1.07759,4.16016 2.87348,5.34515c1.79589,1.185 4.06725,1.38765 6.04456,0.53929l-1.33405,29.42222c-0.17799,3.71862 2.46721,6.97696 6.14303,7.56696c3.67582,0.59 7.20786,-1.67683 8.20258,-5.26435c0.96025,3.63081 4.51563,5.94317 8.22393,5.34871c3.7083,-0.59446 6.36273,-3.90229 6.13996,-7.65132l-1.1513,-25.14595h76.3333c3.02785,0 5.4824,-2.45455 5.4824,-5.4824v-3.65493c0.00122,-2.3244 -1.46347,-4.39693 -3.65493,-5.17173zM39.78336,54.87627c0,-4.32982 3.51001,-7.83983 7.83983,-7.83983c4.32982,0 7.83983,3.51001 7.83983,7.83983c0,4.32982 -3.51001,7.83983 -7.83983,7.83983c-4.32565,-0.01005 -7.82979,-3.51418 -7.83983,-7.83983zM58.58799,104.21789l1.57162,34.46603c0.07994,1.07276 -0.31677,2.12627 -1.08444,2.87985c-0.76767,0.75359 -1.82834,1.13072 -2.89944,1.03093c-1.86842,-0.2174 -3.29326,-1.7746 -3.34426,-3.65493l-1.55335,-31.06694c0,-1.00928 -0.81818,-1.82747 -1.82747,-1.82747c-1.00928,0 -1.82747,0.81818 -1.82747,1.82747l-1.55335,31.06694c-0.0724,1.865 -1.47607,3.40749 -3.32599,3.65493c-1.05393,0.10164 -2.10014,-0.25876 -2.86787,-0.98793c-0.76773,-0.72917 -1.18152,-1.75544 -1.13428,-2.8132l1.57162,-34.57568v-20.7052c0,-1.00928 -0.81818,-1.82747 -1.82747,-1.82747c-1.00928,0 -1.82747,0.81818 -1.82747,1.82747v19.79147c0,1.51392 -1.22728,2.7412 -2.7412,2.7412c-1.51392,0 -2.7412,-1.22728 -2.7412,-2.7412v-16.4472c-0.07249,-3.64403 1.12974,-7.199 3.39909,-10.05107c2.1202,-2.58064 4.97582,-4.45464 8.18705,-5.37275c4.36552,-1.24774 8.99326,-1.24774 13.35878,0l0.73099,0.2193c3.01932,0.86404 5.86429,2.24941 8.40635,4.09353l6.12201,4.45902c1.87122,1.35474 4.12253,2.08386 6.43268,2.08331h5.6286l-0.51169,0.45687c-0.66624,0.69613 -0.6775,1.78996 -0.02573,2.49967c0.65177,0.7097 1.7426,0.79141 2.49282,0.18671l0.58479,-0.52997c0,0 0,0 0,0.09137c0.00975,0.73017 -0.27223,1.43404 -0.78341,1.95552c-0.51118,0.52147 -1.2093,0.81743 -1.93951,0.82223h-8.11395c-3.25726,-0.0126 -6.43743,-0.99209 -9.13734,-2.8143l-4.56867,-3.0336c-0.56052,-0.37887 -1.28448,-0.41707 -1.88176,-0.09929c-0.59727,0.31778 -0.97011,0.93954 -0.96909,1.61609v20.7783zM140.82401,107.87282c0,1.00928 -0.81818,1.82747 -1.82747,1.82747h-76.49777l-0.25585,-5.4824v-17.34266l1.663,1.11475c3.32043,2.2392 7.23402,3.43555 11.23892,3.43564h7.83983c2.74926,0.03504 5.2352,-1.62952 6.24994,-4.1849c0.60682,-1.61626 0.50737,-3.41302 -0.27412,-4.95244l18.36604,-16.84925c0.53023,-0.42738 0.77883,-1.11415 0.64501,-1.78191c-0.13382,-0.66776 -0.62785,-1.2057 -1.28183,-1.39577c-0.65397,-0.19006 -1.35938,-0.00071 -1.83026,0.4913l-18.38432,16.77615c-0.97253,-0.58125 -2.08336,-0.89052 -3.21634,-0.89546h-5.4824c-1.54218,0.00165 -3.04538,-0.48449 -4.29455,-1.38888l-5.75652,-4.22145c-3.07252,-2.23016 -6.51115,-3.90618 -10.16072,-4.95244l-0.40204,-0.10965c-2.50776,-0.71736 -5.10357,-1.08028 -7.71191,-1.07821v-1.20613c3.2401,-0.553 6.06122,-2.5304 7.68628,-5.38754c1.62506,-2.85714 1.88264,-6.29261 0.70179,-9.36012c0.45692,-0.33356 0.7336,-0.85992 0.74926,-1.42542v-3.65493c0,-1.00928 -0.81818,-1.82747 -1.82747,-1.82747c-1.00928,0 -1.82747,0.81818 -1.82747,1.82747v0.87718c-1.54064,-1.38317 -3.44141,-2.30188 -5.4824,-2.64983v-1.82747c0,-1.00928 0.81818,-1.82747 1.82747,-1.82747h84.06349c1.00928,0 1.82747,0.81818 1.82747,1.82747v56.65148h-54.82401c-1.00928,0 -1.82747,0.81818 -1.82747,1.82747c0,1.00928 0.81818,1.82747 1.82747,1.82747h56.65148c1.00928,0 1.82747,0.81818 1.82747,1.82747z" fill="#666666"></path></g></g></svg>