<svg width="32" height="34" viewBox="0 0 32 34" fill="none" xmlns="http://www.w3.org/2000/svg">
<path d="M28.1683 1.83594H3.12981C1.40137 1.83594 0 3.23731 0 4.96575V9.26923V30.0042C0 31.7326 1.40137 33.134 3.12981 33.134H28.1683C29.8967 33.134 31.2981 31.7326 31.2981 30.0042V9.26923V4.96575C31.2981 3.23731 29.8967 1.83594 28.1683 1.83594Z" fill="#009966"/>
<path d="M28.1682 4.96558H3.12976V30.004H28.1682V4.96558Z" fill="white"/>
<path d="M28.17 0.699951H3.13C1.40146 0.699951 0 2.13275 0 3.89995V9.49995H31.3V3.89995C31.3 2.13275 29.8985 0.699951 28.17 0.699951Z" fill="#4F5D73"/>
<path d="M15.3088 28.0806C14.5132 28.0806 13.8674 27.4349 13.8674 26.6392C13.8674 22.6647 15.1337 19.8252 16.3833 17.9911H11.7054C10.9098 17.9911 10.264 17.3454 10.264 16.5498C10.264 15.7541 10.9098 15.1084 11.7054 15.1084H19.6328C20.2606 15.1084 20.8162 15.5141 21.0065 16.113C21.1967 16.7119 20.9783 17.3634 20.4659 17.7259C20.3225 17.8311 16.7501 20.5084 16.7501 26.6392C16.7501 27.4349 16.1044 28.0806 15.3088 28.0806Z" fill="#009966"/>
<path d="M6.66071 8.18087C5.86437 8.18087 5.21936 7.53586 5.21936 6.73951V1.69477C5.21936 0.898424 5.86437 0.253418 6.66071 0.253418C7.45706 0.253418 8.10207 0.898424 8.10207 1.69477V6.73951C8.10207 7.53586 7.45706 8.18087 6.66071 8.18087Z" fill="#E0E0D1"/>
<path d="M24.6776 8.18087C23.8812 8.18087 23.2362 7.53586 23.2362 6.73951V1.69477C23.2362 0.898424 23.8812 0.253418 24.6776 0.253418C25.4739 0.253418 26.1189 0.898424 26.1189 1.69477V6.73951C26.1189 7.53586 25.4739 8.18087 24.6776 8.18087Z" fill="#E0E0D1"/>
</svg>
