<svg xmlns="http://www.w3.org/2000/svg" viewBox="0 0 929.8 929.8">
<defs><style>.primary{fill:#096;}.white{fill:#fff;}
</style></defs>
<circle class="primary" cx="464.9" cy="464.9" r="464.9"/><path class="white" d="M800.4,333.6V647.9l-33,40.4-33-40.4V358.1l-269.5,100L129.5,333.6,465,209.1ZM410.5,530.8a49.9,49.9,0,1,0-49.9,49.9A49.9,49.9,0,0,0,410.5,530.8Zm208.7,0a49.9,49.9,0,1,1-49.9-49.9A49.9,49.9,0,0,1,619.2,530.8Zm-34.6,142a17,17,0,0,1-7.6,22.8c-33.1,16.5-69.9,24.9-108.4,24.9a281.92,281.92,0,0,1-45.4-3.8c-41.2-6.8-68.9-20.5-70-21.1a17,17,0,1,1,14.4-30.8l.8.4c.5.3,25.3,12.3,61.6,18.1,47.9,7.7,92.4,1.6,132.1-18.1a16.56,16.56,0,0,1,22.29,7.18Z"/></svg>