<svg xmlns="http://www.w3.org/2000/svg" viewBox="0 0 670.9 511.4">
<defs><style>
.primary{fill:#096;}
</style></defs>
<path class="primary" d="M670.9,124.5V438.8l-33,40.4-33-40.4V149L335.4,249,0,124.5,335.5,0ZM281,321.7a49.9,49.9,0,1,0-49.9,49.9A49.91,49.91,0,0,0,281,321.7Zm208.7,0a49.9,49.9,0,1,1-49.9-49.9A49.91,49.91,0,0,1,489.7,321.7Zm-34.6,142a17,17,0,0,1-7.6,22.8c-33.1,16.5-69.9,24.9-108.4,24.9a281.92,281.92,0,0,1-45.4-3.8c-41.2-6.8-68.9-20.5-70-21.1a17,17,0,1,1,15.2-30.4c.5.3,25.3,12.3,61.6,18.1,47.9,7.7,92.4,1.6,132.1-18.1A16.56,16.56,0,0,1,455.1,463.7Z"/></svg>