<svg xmlns="http://www.w3.org/2000/svg" viewBox="0 0 753.83 110.29">
<defs><style>
.primary{fill:#096;}.text{fill:FFF;}
</style></defs>
<g class="text"><path d="M44.2,73.07H10.31v27.71H49.68v8.43H0V31H49.15v8.43H10.31V64.64H44.2Z"/><path d="M88,61l18.75-30h12.14L94.21,69.79l25.3,39.42H107.26L88,78.71,68.7,109.22H56.5L81.86,69.79,57.09,31H69.18Z"/><path d="M174.67,88.75H141.9l-7.36,20.46H123.91L153.77,31h9l29.92,78.2H182.13ZM145,80.32h26.59L158.29,43.74Z"/><path d="M216.56,31l25.57,63.81L267.7,31h13.37v78.2H270.76V78.76l1-32.87L246,109.22h-7.9L212.53,46.05l1,32.71v30.45H203.24V31Z"/><path d="M322.32,74.36Q309.05,70.54,303,65a17.91,17.91,0,0,1-6-13.72A18.92,18.92,0,0,1,304.35,36q7.38-6,19.2-6a32,32,0,0,1,14.37,3.12,23.63,23.63,0,0,1,9.78,8.59,22,22,0,0,1,3.46,12H340.8q0-7.11-4.51-11.18t-12.73-4.07q-7.63,0-11.9,3.36a11.22,11.22,0,0,0-4.27,9.33,10.09,10.09,0,0,0,4.06,8.1q4.05,3.31,13.8,6.05a64.06,64.06,0,0,1,15.25,6A23.16,23.16,0,0,1,348.66,79a19.67,19.67,0,0,1,2.66,10.37,18.27,18.27,0,0,1-7.41,15.23q-7.41,5.72-19.82,5.72a36.76,36.76,0,0,1-15-3.09,25.3,25.3,0,0,1-10.77-8.46,20.64,20.64,0,0,1-3.79-12.19h10.37a13.47,13.47,0,0,0,5.24,11.2q5.24,4.11,14,4.11,8.16,0,12.51-3.33A10.82,10.82,0,0,0,341,89.45a10.62,10.62,0,0,0-4-8.89Q332.9,77.42,322.32,74.36Z"/><path d="M407.67,74.68H374.85v34.54H364.54V31H413v8.43H374.85v26.8h32.82Z"/><path d="M485.49,72.64a48.37,48.37,0,0,1-3.87,20.06,29.29,29.29,0,0,1-11,13.08,30.24,30.24,0,0,1-44-13,46.42,46.42,0,0,1-4.05-19.47V67.7a47.8,47.8,0,0,1,3.92-19.93A29,29,0,0,1,454,29.94a30.32,30.32,0,0,1,16.57,4.54,29.24,29.24,0,0,1,11,13.16,48.61,48.61,0,0,1,3.87,20.06Zm-10.26-5q0-13.91-5.59-21.35T454,38.8q-9.78,0-15.39,7.44t-5.77,20.65v5.75q0,13.48,5.67,21.19a18.3,18.3,0,0,0,15.6,7.71q10,0,15.47-7.28t5.64-20.87Z"/><path d="M529.64,77.58H511.27v31.64H500.91V31H526.8q13.21,0,20.33,6t7.12,17.51a21,21,0,0,1-3.95,12.73,23.55,23.55,0,0,1-11,8.11l18.37,33.19v.64H546.62Zm-18.37-8.43h15.84q7.68,0,12.22-4a13.46,13.46,0,0,0,4.54-10.65q0-7.26-4.32-11.14t-12.49-3.93H511.27Z"/><path d="M594.34,109V85.65a7.23,7.23,0,0,1-11-1V109"/><path class="primary" d="M584.62,82.88a5.47,5.47,0,0,0,.39.64,5.23,5.23,0,0,0,.43.53h0a5.11,5.11,0,0,0,1.71,1.21h0a5.21,5.21,0,0,0,.56.2l.12,0c.17,0,.34.08.51.11l.19,0a5.36,5.36,0,0,0,.67,0h.07a5.36,5.36,0,0,0,.69,0l.1,0a5.31,5.31,0,0,0,.61-.13h0a5.13,5.13,0,0,0,2.81-2,5.46,5.46,0,0,0,.39-.63l.4-.77.24-.46,1-1.92L637,0H625.2L594,60a5.25,5.25,0,0,1-9.33,0L569.73,31H558a5.25,5.25,0,0,0,.3.73L583,79.8l1.05,2,.27.53Z"/><circle cx="589.84" cy="42.5" r="8.5"/><path d="M683.31,72.64a48.37,48.37,0,0,1-3.87,20.06,29.29,29.29,0,0,1-11,13.08,30.24,30.24,0,0,1-44-13,46.42,46.42,0,0,1-4.05-19.47V67.7a47.8,47.8,0,0,1,3.92-19.93,29,29,0,0,1,27.5-17.83,30.32,30.32,0,0,1,16.57,4.54,29.24,29.24,0,0,1,11,13.16,48.61,48.61,0,0,1,3.87,20.06Zm-10.26-5q0-13.91-5.59-21.35T651.84,38.8q-9.78,0-15.39,7.44t-5.77,20.65v5.75q0,13.48,5.67,21.19a18.3,18.3,0,0,0,15.6,7.71q10,0,15.47-7.28t5.64-20.87Z"/><path d="M753.83,31V84.19q-.05,11.07-7,18.1t-18.72,7.9l-2.74.11q-12.84,0-20.46-6.93t-7.73-19.07V31h10.21V84q0,8.49,4.67,13.19t13.32,4.7q8.75,0,13.4-4.67T743.47,84V31Z"/></g></svg>