<svg width="100" height="100" viewBox="0 0 100 100" fill="none" xmlns="http://www.w3.org/2000/svg">
<path d="M81.2103 89.531C81.2103 69.4096 65.0822 52.5754 44.7955 52.366C44.6477 52.366 44.4788 52.366 44.3311 52.366C19.8434 52.366 0 72.0477 0 96.3358C0 97.5712 0.0844402 98.7856 0.18999 100H81.2103V89.531Z" fill="#F2C6DD"/>
<path d="M22.2922 71.1893H9.75281V83.6265H22.2922V71.1893Z" fill="black"/>
<path d="M51.4241 10.9506H67.0033V97.9062H2.89209V10.9506H18.4713" fill="white"/>
<path d="M52.1206 14.887H17.7746L19.4212 5.7161H30.7995C30.7995 3.41292 32.6783 1.59131 34.9582 1.59131C37.2592 1.59131 39.1168 3.43385 39.1168 5.7161H50.4952L52.1206 14.887Z" fill="#009966"/>
<path d="M22.2922 28.1617H9.75281V40.5988H22.2922V28.1617Z" fill="#9BEAF9"/>
<path d="M22.2922 49.6859H9.75281V62.1231H22.2922V49.6859Z" fill="#9BEAF9"/>
<path d="M22.2922 71.1893H9.75281V83.6265H22.2922V71.1893Z" fill="#9BEAF9"/>
<path d="M77.6849 19.3886V73.4925L84.3134 86.6625L90.942 73.4925V19.3886C90.942 15.7663 87.9655 12.8141 84.3134 12.8141C80.6403 12.8141 77.6849 15.7663 77.6849 19.3886Z" fill="#009966"/>
<path d="M77.6849 73.0738V73.4925L84.3134 86.6625L90.942 73.4925V73.0738H77.6849Z" fill="white"/>
<path d="M8.19067 83.6265C8.19067 84.4849 8.90842 85.1968 9.77393 85.1968H22.3133C23.1788 85.1968 23.8965 84.4849 23.8965 83.6265V71.1893C23.8965 70.3308 23.1788 69.6189 22.3133 69.6189H9.77393C8.90842 69.6189 8.19067 70.3308 8.19067 71.1893V83.6265ZM11.3572 72.7596H20.73V82.0561H11.3572V72.7596Z" fill="#505050"/>
<path d="M59.6147 73.0108C59.6147 72.1524 58.8969 71.4405 58.0314 71.4405H29.6173C28.7518 71.4405 28.0341 72.1524 28.0341 73.0108C28.0341 73.8693 28.7518 74.5812 29.6173 74.5812H58.0314C58.918 74.5812 59.6147 73.8693 59.6147 73.0108Z" fill="#505050"/>
<path d="M29.6173 78.4339C28.7518 78.4339 28.0341 79.1458 28.0341 80.0043C28.0341 80.8627 28.7518 81.5746 29.6173 81.5746H41.8611C42.7266 81.5746 43.4444 80.8627 43.4444 80.0043C43.4444 79.1458 42.7266 78.4339 41.8611 78.4339H29.6173Z" fill="#505050"/>
<path d="M67.0244 91.2689C67.8988 91.2689 68.6076 90.5658 68.6076 89.6985C68.6076 88.8312 67.8988 88.1282 67.0244 88.1282C66.1499 88.1282 65.4411 88.8312 65.4411 89.6985C65.4411 90.5658 66.1499 91.2689 67.0244 91.2689Z" fill="#505050"/>
<path d="M67.0244 9.38023H52.7751L52.0574 5.42295C51.9096 4.69012 51.2552 4.12479 50.4952 4.12479H40.4891C39.7924 1.69598 37.5125 0 34.9582 0C32.3828 0 30.124 1.69598 29.4274 4.12479H19.4212C18.6402 4.12479 17.9858 4.69012 17.8591 5.42295L17.1414 9.38023H2.89209C2.46989 9.38023 2.0688 9.54774 1.77326 9.84087C1.47772 10.134 1.30884 10.5318 1.30884 10.9506V97.8853C1.30884 98.304 1.47772 98.7018 1.77326 98.995C2.0688 99.2881 2.46989 99.4556 2.89209 99.4556H67.0244C67.4466 99.4556 67.8477 99.2881 68.1432 98.995C68.4387 98.7018 68.6076 98.304 68.6076 97.8853V93.8861C68.6076 93.0276 67.8899 92.3157 67.0244 92.3157C66.1378 92.3157 65.4411 93.0276 65.4411 93.8861V96.3149H4.47534V12.5209H16.5925L16.2125 14.5938C16.1281 15.0544 16.2547 15.5151 16.5714 15.871C16.8669 16.227 17.3102 16.4363 17.7747 16.4363H52.1418C52.6062 16.4363 53.0495 16.227 53.3451 15.871C53.6406 15.5151 53.7673 15.0544 53.7039 14.5938L53.324 12.5209H65.4411V85.5109C65.4411 86.3903 66.1378 87.0812 67.0244 87.0812C67.8899 87.0812 68.6076 86.3903 68.6076 85.5109V10.9506C68.6076 10.5318 68.4387 10.134 68.1432 9.84087C67.8266 9.54774 67.4466 9.38023 67.0244 9.38023ZM19.6535 13.2956L20.7512 7.26549H30.7784C31.2218 7.26549 31.6017 7.11893 31.8973 6.80486C32.2139 6.51172 32.3617 6.13484 32.3617 5.69514C32.3617 4.29229 33.5228 3.1407 34.9582 3.1407C36.3726 3.1407 37.5337 4.29229 37.5337 5.69514C37.5337 6.1139 37.7025 6.53266 37.9981 6.80486C38.2936 7.09799 38.6947 7.26549 39.1169 7.26549H49.1653L50.2419 13.2956H19.6535Z" fill="#505050"/>
<path d="M9.77393 42.1482H22.2922C22.7144 42.1482 23.1155 41.9807 23.411 41.6876C23.7065 41.3945 23.8754 40.9966 23.8754 40.5779V28.1407C23.8754 27.7219 23.7065 27.3241 23.411 27.031C23.1155 26.7378 22.7144 26.5703 22.2922 26.5703H9.77393C9.35173 26.5703 8.95063 26.7378 8.65509 27.031C8.35955 27.3241 8.19067 27.7219 8.19067 28.1407V40.5779C8.19067 40.9757 8.35955 41.3945 8.65509 41.6876C8.95063 41.9807 9.35173 42.1482 9.77393 42.1482ZM11.3361 29.711H20.7089V39.0075H11.3361V29.711Z" fill="#505050"/>
<path d="M29.6173 31.5327H58.0314C58.918 31.5327 59.6147 30.8208 59.6147 29.9623C59.6147 29.0829 58.918 28.392 58.0314 28.392H29.6173C28.7518 28.392 28.0341 29.0829 28.0341 29.9623C28.0341 30.8208 28.7518 31.5327 29.6173 31.5327Z" fill="#505050"/>
<path d="M29.6173 38.526H41.8822C42.7478 38.526 43.4655 37.8141 43.4655 36.9556C43.4655 36.0762 42.7478 35.3853 41.8822 35.3853H29.6173C28.7518 35.3853 28.0341 36.0762 28.0341 36.9556C28.0341 37.8141 28.7518 38.526 29.6173 38.526Z" fill="#505050"/>
<path d="M8.19067 62.1022C8.19067 62.5209 8.35955 62.9188 8.65509 63.2119C8.92952 63.505 9.35173 63.6725 9.77393 63.6725H22.2922C22.7144 63.6725 23.1155 63.505 23.411 63.2119C23.7065 62.9188 23.8754 62.5209 23.8754 62.1022V49.665C23.8754 49.2462 23.7065 48.8484 23.411 48.5553C23.1155 48.2621 22.7144 48.0946 22.2922 48.0946H9.77393C9.35173 48.0946 8.92952 48.2621 8.65509 48.5553C8.35955 48.8484 8.19067 49.2462 8.19067 49.665V62.1022ZM11.3361 51.2353H20.7089V60.5318H11.3361V51.2353Z" fill="#505050"/>
<path d="M29.6173 53.0569H58.0314C58.918 53.0569 59.6147 52.345 59.6147 51.4866C59.6147 50.6072 58.918 49.9162 58.0314 49.9162H29.6173C28.7518 49.9162 28.0341 50.6072 28.0341 51.4866C28.0341 52.345 28.7518 53.0569 29.6173 53.0569Z" fill="#505050"/>
<path d="M29.6173 60.0502H41.8822C42.7478 60.0502 43.4655 59.3384 43.4655 58.4799C43.4655 57.6005 42.7478 56.9095 41.8822 56.9095H29.6173C28.7518 56.9095 28.0341 57.6005 28.0341 58.4799C28.0341 59.3384 28.7518 60.0502 29.6173 60.0502Z" fill="#505050"/>
<path d="M90.9421 64.3844C91.8165 64.3844 92.5253 63.6813 92.5253 62.814C92.5253 61.9468 91.8165 61.2437 90.9421 61.2437C90.0677 61.2437 89.3588 61.9468 89.3588 62.814C89.3588 63.6813 90.0677 64.3844 90.9421 64.3844Z" fill="#505050"/>
<path d="M99.5549 24.4137C99.2593 24.1206 98.8582 23.9531 98.436 23.9531H92.5252V19.3886C92.5252 14.8869 88.8521 11.2437 84.3134 11.2437C79.7959 11.2437 76.1016 14.8869 76.1016 19.3886V73.5134L76.1227 73.6181C76.1438 73.8065 76.1861 73.995 76.2494 74.1625V74.2044L82.8779 87.3744C83.1524 87.9188 83.7012 88.2328 84.2923 88.2328C84.9045 88.2328 85.4534 87.9188 85.7067 87.3744L92.3564 74.1834V74.1415C92.4408 73.9531 92.5041 73.7437 92.5041 73.5134V67.0226C92.5041 66.1432 91.8075 65.4523 90.9209 65.4523C90.0554 65.4523 89.3376 66.1432 89.3376 67.0226V71.943H79.247V27.0938H89.3376V58.6265C89.3376 59.4849 90.0554 60.1968 90.9209 60.1968C91.8075 60.1968 92.5041 59.4849 92.5041 58.6265V27.0938H96.8317V51.1516C96.8317 52.031 97.5494 52.7219 98.4149 52.7219C99.2804 52.7219 99.9982 52.031 99.9982 51.1516V25.5234C100.019 25.1047 99.8504 24.7069 99.5549 24.4137ZM84.3134 83.1449L80.2392 75.0628H88.3665L84.3134 83.1449ZM79.2681 23.9531V19.3886C79.2892 16.6248 81.548 14.3844 84.3134 14.3844C87.0999 14.3844 89.3587 16.6248 89.3587 19.3886V23.9531H79.2681Z" fill="#505050"/>
</svg>
