<svg width="100" height="100" viewBox="0 0 100 100" fill="none" xmlns="http://www.w3.org/2000/svg">
<path d="M80.5486 88.9722C80.5486 67.7768 64.5519 50.0441 44.4305 49.8235C44.2839 49.8235 44.1164 49.8235 43.9699 49.8235C19.6817 49.8235 0 70.5558 0 96.1403C0 97.4415 0.0837522 98.7208 0.188442 100H80.5486V88.9722Z" fill="#F2C6DD"/>
<path d="M98.4297 7.76357C98.4297 4.38907 95.8124 1.65417 92.6298 1.65417H7.89364C4.69013 1.65417 2.09381 4.38907 2.09381 7.76357V66.0344H98.4087V7.76357H98.4297Z" fill="white"/>
<path d="M2.11475 66.0344V74.0185C2.11475 77.371 4.71107 80.1279 7.91459 80.1279H92.6298C95.8124 80.1279 98.4297 77.371 98.4297 74.0185V66.0344H2.11475Z" fill="#009966"/>
<path d="M90.7035 9.79269H9.84089V66.0344H90.7035V9.79269Z" fill="#9BEAF9"/>
<path d="M59.2965 80.1059H41.227H37.3116V92.5011H63.2119V80.1059H59.2965Z" fill="#FDE4A1"/>
<path d="M45.268 78.4517C44.3886 78.4517 43.6977 79.2016 43.6977 80.1279C43.6977 81.0322 44.3886 81.7601 45.268 81.7601C46.1265 81.7601 46.8174 81.0322 46.8174 80.1279C46.8384 79.2016 46.1474 78.4517 45.268 78.4517Z" fill="#505050"/>
<path d="M92.6298 0H7.91459C3.85261 0 0.544403 3.48478 0.544403 7.76357V66.0124C0.544403 66.0124 0.544403 66.0124 0.544403 66.0344C0.544403 66.0565 0.544403 66.0344 0.544403 66.0565V74.0185C0.544403 78.2973 3.85261 81.7601 7.91459 81.7601H35.7622V90.847H25.9632C25.1047 90.847 24.3928 91.5748 24.3928 92.5011C24.3928 93.4054 25.1047 94.1553 25.9632 94.1553H74.5813C75.4397 94.1553 76.1516 93.4054 76.1516 92.5011C76.1516 91.5748 75.4397 90.847 74.5813 90.847H64.7823V81.7601L92.6298 81.738C96.6918 81.738 100 78.2532 100 73.9965V7.76357C100 3.48478 96.6918 0 92.6298 0ZM7.91459 3.30834H92.6298C94.954 3.30834 96.8593 5.3154 96.8593 7.76357V64.3803H92.2739V9.79268C92.2739 9.35157 92.1064 8.93251 91.8133 8.62373C91.5201 8.31496 91.1014 8.13851 90.7035 8.13851H28.9154C28.057 8.13851 27.3451 8.8884 27.3451 9.79268C27.3451 10.697 28.057 11.4468 28.9154 11.4468H89.1332V64.3803H11.4112V11.4468H20.5402C21.4196 11.4468 22.1106 10.697 22.1106 9.79268C22.1106 8.8884 21.4406 8.16057 20.5821 8.13851C20.5612 8.13851 20.5612 8.13851 20.5402 8.13851H9.84089C9.42213 8.13851 9.0243 8.31496 8.73117 8.62373C8.43804 8.93251 8.27053 9.35157 8.27053 9.79268V64.3803H3.68511V7.76357C3.68511 5.29334 5.59047 3.30834 7.91459 3.30834ZM92.6298 78.4517H49.4556C48.5972 78.4517 47.9062 79.2016 47.9062 80.1279C47.9062 81.0322 48.5972 81.7821 49.4556 81.7821H59.2756H59.2965H61.6416V90.847H38.9029V81.7601H41.1014H41.227C42.1064 81.7601 42.7973 81.0322 42.7973 80.1279C42.7973 79.2016 42.1064 78.4738 41.227 78.4738H41.1223L41.1014 78.4517H7.91459C5.59047 78.4517 3.68511 76.4667 3.68511 74.0185V67.6886H9.81995C9.81995 67.6886 9.81995 67.6886 9.84089 67.6886H90.7035C90.7035 67.6886 90.7035 67.6886 90.7245 67.6886H96.8593V74.0185C96.8593 76.4667 94.954 78.4517 92.6298 78.4517Z" fill="#505050"/>
<path d="M24.7278 11.4469C25.5951 11.4469 26.2982 10.7063 26.2982 9.79269C26.2982 8.87912 25.5951 8.13852 24.7278 8.13852C23.8605 8.13852 23.1575 8.87912 23.1575 9.79269C23.1575 10.7063 23.8605 11.4469 24.7278 11.4469Z" fill="#505050"/>
<path d="M18.6558 52.7128C18.9699 53.0437 19.3677 53.198 19.7655 53.198C20.1633 53.198 20.5612 53.0437 20.8752 52.7128L31.8049 41.1998L40.5779 50.4411C41.1642 51.0587 42.2111 51.0587 42.7973 50.4411L55.3183 37.2519L64.2588 46.6696C64.866 47.3092 65.871 47.3092 66.4782 46.6696L77.0101 35.5756V40.869C77.0101 41.7733 77.722 42.5231 78.5804 42.5231C79.4389 42.5231 80.1508 41.7733 80.1508 40.869V31.5836C80.1508 31.363 80.1089 31.1645 80.0251 30.944C79.8576 30.547 79.5645 30.2161 79.1667 30.0397C78.9782 29.9515 78.7689 29.9073 78.5595 29.9073H69.7446C68.8861 29.9073 68.1742 30.6572 68.1742 31.5615C68.1742 32.4658 68.8861 33.2157 69.7446 33.2157H74.7697L65.3476 43.1407L56.4071 33.723C55.8208 33.1054 54.7739 33.1054 54.1876 33.723L41.6667 46.9122L32.8937 37.6709C32.3074 37.0534 31.2605 37.0534 30.6742 37.6709L18.6349 50.3529C18.0486 51.0145 18.0486 52.0511 18.6558 52.7128Z" fill="#505050"/>
</svg>
