<svg width="61" height="62" viewBox="0 0 61 62" fill="none" xmlns="http://www.w3.org/2000/svg">
<path d="M30.5219 60.4224C46.7654 60.4224 59.9334 47.2545 59.9334 31.0109C59.9334 14.7674 46.7654 1.59943 30.5219 1.59943C14.2783 1.59943 1.11035 14.7674 1.11035 31.0109C1.11035 47.2545 14.2783 60.4224 30.5219 60.4224Z" fill="#2C8AAA"/>
<path opacity="0.19" d="M41.9842 18.4821L60.644 36.4312L59.5778 60.4224L39.6739 59.5783L19.9033 43.5397L41.9842 18.4821Z" fill="#070808"/>
<path d="M30.5673 47.3605C39.7933 47.3605 47.2724 39.8814 47.2724 30.6555C47.2724 21.4296 39.7933 13.9505 30.5673 13.9505C21.3414 13.9505 13.8623 21.4296 13.8623 30.6555C13.8623 39.8814 21.3414 47.3605 30.5673 47.3605Z" fill="#215C6D"/>
<path d="M30.5222 45.0947C38.4967 45.0947 44.9614 38.63 44.9614 30.6555C44.9614 22.681 38.4967 16.2163 30.5222 16.2163C22.5476 16.2163 16.083 22.681 16.083 30.6555C16.083 38.63 22.5476 45.0947 30.5222 45.0947Z" fill="white"/>
<path d="M29.9893 31.0553L30.1225 39.2301C30.1225 39.2301 30.7445 40.0299 31.1888 39.2301L31.0111 31.1886H30.9667C30.8334 31.2331 30.789 31.3219 30.3891 31.2775C30.2558 31.2775 30.1225 31.1886 29.9893 31.0553Z" fill="#3B4A51"/>
<path d="M31.3213 31.0553L39.7182 31.0109C39.7182 31.0109 40.4735 30.6555 39.6738 30.2112L31.3657 30.3445C31.3657 30.3445 31.4101 30.5222 31.4101 30.6999C31.4101 30.8332 31.3213 31.0553 31.3213 31.0553Z" fill="#3B4A51"/>
<path d="M32.1885 32.4148L32.377 32.2263L25.3085 25.1579L25.12 25.3464L32.1885 32.4148Z" fill="#215C6D"/>
<path d="M32.2553 32.4771C32.378 32.4771 32.4775 32.3776 32.4775 32.2549C32.4775 32.1322 32.378 32.0328 32.2553 32.0328C32.1327 32.0328 32.0332 32.1322 32.0332 32.2549C32.0332 32.3776 32.1327 32.4771 32.2553 32.4771Z" fill="#215C6D"/>
<path d="M25.3242 25.5907C25.4714 25.5907 25.5908 25.4713 25.5908 25.3241C25.5908 25.1769 25.4714 25.0575 25.3242 25.0575C25.177 25.0575 25.0576 25.1769 25.0576 25.3241C25.0576 25.4713 25.177 25.5907 25.3242 25.5907Z" fill="#215C6D"/>
<path d="M30.5668 31.5885C31.0821 31.5885 31.4998 31.1708 31.4998 30.6555C31.4998 30.1402 31.0821 29.7225 30.5668 29.7225C30.0515 29.7225 29.6338 30.1402 29.6338 30.6555C29.6338 31.1708 30.0515 31.5885 30.5668 31.5885Z" fill="white" stroke="#235C6D" stroke-width="0.444283" stroke-miterlimit="10"/>
</svg>
