<svg width="69" height="69" viewBox="0 0 69 69" fill="none" xmlns="http://www.w3.org/2000/svg">
<path fill-rule="evenodd" clip-rule="evenodd" d="M28.7502 47.4375C28.2173 47.438 27.6948 47.2904 27.2409 47.0112C26.787 46.732 26.4197 46.3321 26.1799 45.8563L21.0049 35.5307L18.0624 39.1978C17.7917 39.5336 17.449 39.8042 17.0595 39.9896C16.6701 40.175 16.244 40.2704 15.8127 40.2687H10.0627C9.30245 40.2687 8.57338 39.9667 8.03583 39.4291C7.49828 38.8916 7.19629 38.1625 7.19629 37.4023C7.19629 36.6421 7.49828 35.913 8.03583 35.3755C8.57338 34.8379 9.30245 34.5359 10.0627 34.5359H14.4312L19.3187 28.4453C19.62 28.0683 20.0113 27.7733 20.4565 27.5873C20.9018 27.4014 21.3867 27.3305 21.8665 27.3812C22.3464 27.4319 22.8058 27.6025 23.2024 27.8774C23.5989 28.1523 23.9199 28.5226 24.1358 28.9541L28.017 36.6965L31.7373 23.7159C31.8998 23.1486 32.233 22.645 32.6916 22.2736C33.1502 21.9022 33.712 21.6809 34.3007 21.6397C34.8894 21.5986 35.4765 21.7396 35.9823 22.0437C36.4881 22.3477 36.8881 22.8001 37.1279 23.3393L42.1203 34.5374H46.0002C46.7604 34.5374 47.4894 34.8394 48.027 35.3769C48.5645 35.9145 48.8665 36.6435 48.8665 37.4038C48.8665 38.164 48.5645 38.893 48.027 39.4306C47.4894 39.9681 46.7604 40.2701 46.0002 40.2701H40.2502C39.6948 40.2704 39.1512 40.1098 38.6851 39.8078C38.2191 39.5058 37.8504 39.0752 37.6239 38.5681L35.0895 32.8814L31.5145 45.356C31.3542 45.9114 31.0302 46.4057 30.5848 46.7742C30.1394 47.1427 29.5932 47.3683 29.0175 47.4217C28.927 47.4375 28.8379 47.4375 28.7502 47.4375Z" fill="#FF6E6E"/>
<path fill-rule="evenodd" clip-rule="evenodd" d="M53.1875 46C51.4816 46 49.8141 45.4942 48.3957 44.5464C46.9773 43.5987 45.8718 42.2517 45.219 40.6756C44.5662 39.0996 44.3954 37.3654 44.7282 35.6924C45.061 34.0193 45.8825 32.4824 47.0887 31.2762C48.2949 30.07 49.8318 29.2485 51.5048 28.9157C53.1779 28.5829 54.9121 28.7537 56.4881 29.4065C58.0642 30.0593 59.4112 31.1648 60.3589 32.5832C61.3067 34.0016 61.8125 35.6691 61.8125 37.375C61.8125 39.6625 60.9038 41.8563 59.2863 43.4738C57.6688 45.0913 55.475 46 53.1875 46ZM53.1875 33.4693C52.4145 33.4716 51.6595 33.7029 51.0179 34.1342C50.3763 34.5654 49.877 35.1771 49.5829 35.892C49.2889 36.6069 49.2133 37.3929 49.3659 38.1507C49.5184 38.9086 49.8921 39.6042 50.4398 40.1497C50.9875 40.6952 51.6846 41.0661 52.4431 41.2155C53.2015 41.365 53.9872 41.2863 54.7009 40.9893C55.4146 40.6924 56.0243 40.1906 56.4529 39.5473C56.8815 38.9039 57.1099 38.148 57.109 37.375C57.1063 36.3372 56.6918 35.343 55.9565 34.6106C55.2212 33.8783 54.2253 33.4678 53.1875 33.4693Z" fill="#0C0058"/>
</svg>
