<svg width="35" height="35" viewBox="0 0 35 35" fill="none" xmlns="http://www.w3.org/2000/svg">
<path d="M31.7183 0H5.46436C3.65202 0 2.18262 1.56712 2.18262 3.5V8.3125V31.5C2.18262 33.4329 3.65202 35 5.46436 35H31.7183C33.5306 35 35 33.4329 35 31.5V8.3125V3.5C35 1.56712 33.5306 0 31.7183 0Z" fill="#009966"/>
<path d="M31.7183 3.49976H5.46436V31.4998H31.7183V3.49976Z" fill="white"/>
<path d="M27.8738 9.13037H9V11.1433H27.8738V9.13037Z" fill="#4F5D73"/>
<path d="M27.8738 13.156H9V15.1689H27.8738V13.156Z" fill="#E0E0D1"/>
<path d="M27.8738 17.1816H9V19.1945H27.8738V17.1816Z" fill="#E0E0D1"/>
<path d="M27.8738 21.2075H9V23.2204H27.8738V21.2075Z" fill="#E0E0D1"/>
<path d="M27.8738 25.2334H9V27.2463H27.8738V25.2334Z" fill="#4F5D73"/>
<path d="M4.45858 10.091C4.45858 10.8417 3.88852 11.4496 3.1847 11.4496H1.27388C0.570061 11.4496 0 10.8417 0 10.091C0 9.3404 0.570061 8.73242 1.27388 8.73242H3.1847C3.88852 8.73242 4.45858 9.3404 4.45858 10.091Z" fill="#4F5D73"/>
<path d="M4.45858 15.5256C4.45858 16.2762 3.88852 16.8842 3.1847 16.8842H1.27388C0.570061 16.8842 0 16.2762 0 15.5256C0 14.775 0.570061 14.167 1.27388 14.167H3.1847C3.88852 14.167 4.45858 14.775 4.45858 15.5256Z" fill="#4F5D73"/>
<path d="M4.45858 20.9599C4.45858 21.7105 3.88852 22.3185 3.1847 22.3185H1.27388C0.570061 22.3185 0 21.7105 0 20.9599C0 20.2093 0.570061 19.6013 1.27388 19.6013H3.1847C3.88852 19.6013 4.45858 20.2093 4.45858 20.9599Z" fill="#4F5D73"/>
<path d="M4.45858 26.3942C4.45858 27.1449 3.88852 27.7528 3.1847 27.7528H1.27388C0.570061 27.7528 0 27.1449 0 26.3942C0 25.6436 0.570061 25.0356 1.27388 25.0356H3.1847C3.88852 25.0356 4.45858 25.6436 4.45858 26.3942Z" fill="#4F5D73"/>
</svg>
