<svg width="743" height="607" viewBox="0 0 743 607" fill="none" xmlns="http://www.w3.org/2000/svg">
<g clip-path="url(#clip0)">
<path opacity="0.1" d="M724.933 351.688C724.933 352.148 724.933 352.609 724.933 353.063C724.853 361.01 724.382 368.938 723.52 376.845C723.524 376.893 723.524 376.941 723.52 376.989C723.452 377.646 723.376 378.296 723.301 378.953C723.172 380.064 723.036 381.167 722.885 382.277C721.122 395.795 718.207 409.138 714.169 422.159C708.76 439.755 701.113 456.584 691.415 472.233C688.432 477.018 685.254 481.649 681.883 486.126C680.084 488.499 678.247 490.818 676.349 493.099C675.019 494.696 673.663 496.267 672.283 497.814L671.421 498.766C664.155 506.738 656.324 514.176 647.987 521.022C634.38 532.294 619.73 542.1 604.846 551.196C603.999 551.718 603.145 552.231 602.291 552.707C602.231 552.751 602.168 552.788 602.102 552.821C581.873 565.044 560.896 576.074 539.284 584.906C515.623 594.599 491.191 601.648 466.124 604.73C431.185 609.021 395.822 605.531 361.095 599.532C332.213 594.573 303.68 587.759 275.674 579.134L271.063 577.691C268.674 576.931 266.288 576.155 263.904 575.364C249.506 570.605 235.269 565.316 221.194 559.499C185.843 544.948 152.071 526.825 120.405 505.414C116.374 502.704 112.4 499.934 108.484 497.103C103.011 493.165 97.6038 489.11 92.2618 484.94L88.966 482.387C74.9861 471.446 61.8883 459.425 49.7935 446.433C33.5258 428.74 19.6241 408.78 10.4849 385.994C9.04356 382.413 7.7232 378.764 6.52379 375.047L6.41039 374.677C5.80565 372.788 5.24626 370.9 4.73222 368.935C3.97629 366.125 3.31359 363.279 2.74412 360.398C2.62317 359.847 2.51733 359.295 2.41906 358.736C0.612294 349.041 -0.185688 339.185 0.0378694 329.325C0.226933 320.686 1.23942 312.085 3.06161 303.639C4.92666 294.882 7.80074 286.372 11.6263 278.277C15.0835 270.998 19.4885 264.208 24.7267 258.083C28.4075 253.801 32.5471 249.935 37.0711 246.554C45.273 240.45 54.3669 236.196 63.7934 232.834C68.2231 231.248 72.7134 229.858 77.2263 228.566C80.4239 227.644 83.6366 226.768 86.8342 225.907L96.2683 223.361C102.316 221.714 108.363 220.021 114.32 218.193C130.557 213.237 146.47 207.239 161.188 198.294C163.516 196.881 165.89 195.332 168.263 193.67C171.287 191.57 174.266 189.288 177.214 186.825C180.192 184.332 183.11 181.665 185.892 178.84C186.323 178.402 186.746 177.963 187.169 177.518C189.437 175.13 191.637 172.63 193.678 170.031C194.676 168.762 195.643 167.47 196.566 166.155C197.843 164.335 199.053 162.484 200.171 160.58C205.78 151.061 209.243 140.559 208.834 129.492C208.775 127.668 208.611 125.849 208.343 124.044C207.36 117.373 206.415 110.861 205.72 104.492C202.802 78.1487 204.034 54.2602 223.817 31.8147C248.415 3.91459 287.021 -1.77423 322.164 0.454459C423.769 6.87609 516.265 64.8521 597.551 133.873C604.581 139.837 611.526 145.881 618.384 152.005C620.113 153.546 621.844 155.097 623.578 156.659C636.429 168.225 649.083 180.222 660.868 193.073C661.82 194.116 662.773 195.158 663.71 196.209C664.285 196.858 664.867 197.5 665.434 198.158C669.108 202.313 672.673 206.569 676.13 210.925C685.391 222.491 693.57 234.883 700.562 247.944C711.269 268.442 718.517 290.565 722.016 313.422C723.331 321.723 724.196 330.088 724.608 338.482C724.737 340.952 724.82 343.43 724.865 345.901C724.865 346.694 724.865 347.479 724.865 348.273C724.941 349.421 724.941 350.539 724.933 351.688Z" fill="#009966"/>
<path d="M297.823 339.017L285.728 554.172L297.823 554.33L307.65 335.995L297.823 339.017Z" fill="#3F3D56"/>
<path d="M253.223 448.026H103.548V480.512H253.223V448.026Z" fill="#009966"/>
<path d="M263.05 476.727V497.125H108.439C102.966 493.186 97.5583 489.132 92.2164 484.962V476.727H263.05Z" fill="#3F3D56"/>
<path d="M293.922 430.302C293.499 432.259 292.947 434.193 292.365 436.119C290.649 441.687 288.585 447.18 288.185 452.967C287.648 460.612 289.697 469.504 284.405 475.057C283.044 476.493 281.268 477.565 280.051 479.099C279.863 479.34 279.692 479.592 279.537 479.855C278.448 481.653 278.32 483.844 278.305 485.898C278.317 490.281 278.603 494.659 279.159 499.006C280.95 513.965 284.488 528.954 279.839 543.074C278.997 545.523 278.015 547.921 276.899 550.258C274.631 555.245 272.159 560.163 271.418 565.564C270.874 569.569 271.04 573.693 271.01 577.766C268.621 577.005 266.235 576.229 263.851 575.439C249.453 570.679 235.216 565.391 221.141 559.573C221.179 559.369 221.217 559.158 221.247 558.954C222.328 552.23 220.846 545.355 219.047 538.798C215.267 524.904 209.915 511.147 206.748 497.155C205.472 491.69 204.636 486.132 204.246 480.535C204.155 479.28 204.102 478.019 204.095 476.757C204.057 475.11 204.095 473.463 204.163 471.801C204.321 468.484 204.465 464.548 201.812 462.531C200.353 461.436 198.425 461.247 196.724 460.582C193.444 459.305 191.198 456.344 188.598 453.972C187.358 452.769 185.843 451.886 184.185 451.399C182.527 450.912 180.775 450.836 179.081 451.176C162.087 455.067 149.599 469.474 133.785 476.757C133.173 477.044 132.561 477.316 131.941 477.573C129.895 478.322 127.948 479.316 126.143 480.535C124.874 481.415 123.954 482.711 123.542 484.199C123.142 485.8 123.489 487.477 123.686 489.124C124.004 491.802 123.889 494.514 123.346 497.155C123.141 498.179 122.871 499.188 122.537 500.177C121.932 501.968 121.123 503.72 120.352 505.466C116.321 502.756 112.347 499.986 108.431 497.155C102.958 493.217 97.5508 489.162 92.2088 484.992L88.9659 482.385C74.986 471.445 61.8882 459.424 49.7934 446.432C51.4035 441.899 53.7318 437.683 54.8506 433.037C55.4856 430.37 55.7199 427.598 56.5968 425.006C57.608 422.32 59.0144 419.799 60.7695 417.527C67.1976 408.568 75.0467 400.718 84.0069 394.288C93.373 387.58 104.19 382.2 112.619 374.585C116.04 371.592 118.988 368.1 121.365 364.227C121.509 363.993 121.645 363.744 121.766 363.472C122.424 362.104 122.88 360.649 123.119 359.151C123.724 355.766 123.633 352.049 123.935 348.8C134.203 350.577 144.671 350.892 155.027 349.737C167.084 348.385 178.877 345.038 190.934 343.739C191.841 343.633 192.756 343.55 193.67 343.474C197.533 343.164 201.403 343.096 205.281 343.142C208.524 343.142 211.767 343.285 215.01 343.391L250.713 344.6C254.667 344.736 258.703 344.887 262.385 346.33C266.754 348.045 270.254 351.46 273.058 355.214C273.414 355.698 273.769 356.181 274.102 356.68C276.409 360.045 278.26 363.7 279.605 367.552C279.749 367.944 279.885 368.307 280.013 368.738C280.353 369.788 280.648 370.846 280.913 371.918C281.117 372.757 281.298 373.595 281.465 374.442C282.296 378.627 282.787 382.903 284.103 386.945C284.193 387.24 284.292 387.534 284.397 387.821C285.977 392.248 288.601 396.215 290.581 400.468C292.009 403.547 293.099 406.772 293.832 410.085C295.312 416.74 295.343 423.635 293.922 430.302Z" fill="#35323E"/>
<path d="M185.4 159.936C182.21 157.398 177.584 159.256 173.85 160.896C170.719 162.278 167.496 163.442 164.204 164.379C163.53 164.638 162.8 164.713 162.087 164.598C160.576 164.235 159.941 162.445 158.814 161.357C156.856 159.476 153.651 159.921 151.126 160.941C148.602 161.961 146.107 163.434 143.401 163.208C140.513 162.981 138.003 160.851 135.085 160.783C129.945 160.662 125.629 166.993 120.768 165.315C117.805 164.296 115.476 160.443 112.559 161.538C110.291 162.399 110.087 165.535 108.718 167.582C107.108 169.969 103.971 170.642 101.288 171.699C92.8287 175.039 87.2272 184.459 88.3309 193.48C88.9432 198.459 91.3546 203.022 92.9496 207.774C97.6818 221.592 96.0565 237.177 102.021 250.504C102.777 249.794 103.2 249.53 103.933 248.827C102.048 252.736 101.684 257.206 102.913 261.368C103.54 263.461 104.561 265.41 105.332 267.457C106.133 269.754 106.779 272.101 107.267 274.483L113.844 303.479C116.414 314.811 118.992 326.143 119.438 337.748C119.715 345.293 119.137 352.846 117.714 360.261C129.628 358.289 140.528 353.008 152.6 353.076C157.03 353.076 161.422 353.832 165.814 354.436C178.619 356.227 191.535 357.103 204.465 357.058C206.476 357.172 208.49 356.89 210.392 356.227C212.055 355.517 213.415 354.255 214.988 353.341C218.064 351.528 221.791 351.074 225.336 351.074C241.506 350.78 257.086 356.695 273.149 358.78C279.491 345.476 279.869 329.535 275.001 315.627C273.557 311.494 271.615 307.468 271.04 303.124C270.809 300.453 270.749 297.771 270.859 295.093C270.834 288.237 269.598 281.439 267.208 275.012C266.27 272.496 265.144 269.935 265.242 267.253C265.34 264.571 266.663 262.071 267.963 259.698C270.602 254.863 273.255 249.983 276.982 245.903C280.799 241.688 285.577 238.477 290.301 235.326L301.965 227.5C300.37 217.429 298.314 206.822 294.043 197.56C289.772 188.297 283.385 179.783 274.744 174.366C271.831 172.615 268.783 171.099 265.628 169.833C261.213 167.975 256.617 166.335 251.832 166.056C246.389 165.746 241.03 167.204 235.655 168.111C218.737 170.959 198.826 170.611 185.4 159.936Z" fill="#009966"/>
<path d="M312.942 334.695L307.393 341.699L296.931 354.897L284.836 370.15L281.457 374.411H274.903L112.611 374.6L10.9762 374.714H6.44055C5.8358 372.825 5.27641 370.936 4.76237 368.972C4.00644 366.161 3.34374 363.316 2.77427 360.435C2.65332 359.883 2.54749 359.332 2.44922 358.773L39.3237 334.68L53.1875 334.605L95.5954 334.363L119.279 334.227H123.603H126.317L142.1 334.144L262.4 333.456L268.553 333.419H271.222L278.29 333.381L304.588 333.23L309.638 331.311L310.009 331.704L312.942 334.695Z" fill="#3F3D56"/>
<path d="M310.674 330.918L310.046 331.673L305.919 336.531L297.422 346.557L279.605 367.552L121.766 363.525L2.74405 360.503C2.6231 359.951 2.51727 359.4 2.419 358.841C0.612233 349.145 -0.185749 339.289 0.0378084 329.43L13.2364 322.676L16.2602 321.119L39.7924 309.032L60.4445 298.455L114.312 305.451L126.241 306.999L131.638 307.694L139.538 308.722L140.203 308.812L264.078 324.867L277.768 326.642L285.804 327.685L310.568 330.903L310.674 330.918Z" fill="#504F60"/>
<path d="M284.972 367.181L284.843 370.15L284.088 386.915L280.021 479.084L279.159 499.006L276.891 550.258L275.614 579.209L271.002 577.766C268.614 577.005 266.227 576.229 263.844 575.439L274.903 374.479L275.137 370.264L280.006 368.753L284.972 367.181Z" fill="#3F3D56"/>
<path d="M11.3239 366.962L10.9837 374.721L10.4848 386.053C9.04349 382.472 7.72313 378.823 6.52371 375.106L6.41032 374.736C5.80557 372.848 5.24618 370.959 4.73215 368.995L11.3239 366.962Z" fill="#3F3D56"/>
<path d="M209.001 252.733C228.205 252.733 243.774 231.762 243.774 205.893C243.774 180.024 228.205 159.052 209.001 159.052C189.796 159.052 174.228 180.024 174.228 205.893C174.228 231.762 189.796 252.733 209.001 252.733Z" fill="#A1616A"/>
<path opacity="0.1" d="M209.001 252.733C228.205 252.733 243.774 231.762 243.774 205.893C243.774 180.024 228.205 159.052 209.001 159.052C189.796 159.052 174.228 180.024 174.228 205.893C174.228 231.762 189.796 252.733 209.001 252.733Z" fill="black"/>
<path d="M213.914 225.913C240.634 225.913 262.294 204.265 262.294 177.562C262.294 150.858 240.634 129.211 213.914 129.211C187.195 129.211 165.534 150.858 165.534 177.562C165.534 204.265 187.195 225.913 213.914 225.913Z" fill="#A1616A"/>
<path d="M214.874 103.041C211.921 103.276 208.988 103.723 206.098 104.378C198.448 106.236 191.833 110.361 185.393 114.411C182.505 116.232 179.534 118.128 177.743 120.802C174.522 125.6 175.77 131.704 173.963 137.03C173.026 139.765 171.302 142.22 169.843 144.766C165.829 151.747 163.728 159.415 161.664 167.008C161.241 168.579 161.12 170.71 162.836 171.314C163.824 171.519 164.852 171.403 165.769 170.982C171.189 169.191 178.075 168.677 182.097 172.311C186.119 175.945 185.778 182.389 190.563 185.155C196.044 188.35 204.601 184.49 209.575 188.26C211.707 189.876 212.478 192.468 214.224 194.417C218.291 198.95 226.115 198.731 232.624 197.816C236.358 197.288 240.939 196.933 243.207 199.554C244.295 200.793 244.605 202.493 245.868 203.611C248.135 205.636 252.285 204.608 254.5 202.531C256.715 200.453 257.774 197.643 259.618 195.308C263.209 190.775 269.521 188.305 273.225 183.825C276.324 180.047 277.261 175.318 278.108 170.755L281.26 153.84C282.538 146.98 283.702 139.485 279.839 133.442C278.463 131.266 276.49 129.392 275.304 127.141C274.51 125.63 274.064 124.036 273.142 122.608C272.048 121.12 270.741 119.802 269.264 118.694L261.803 112.522C259.252 110.291 256.524 108.269 253.646 106.478C242.995 100.276 227.045 101.908 214.874 103.041Z" fill="#464353"/>
<path d="M55.5234 227.59C53.7318 229.494 52.0763 231.549 50.1562 233.332C48.4672 234.833 46.7009 236.245 44.8647 237.563C41.9014 239.779 39.0037 242.073 36.1714 244.445C33.2166 246.78 30.5429 249.449 28.2039 252.4C24.1672 257.817 22.2547 264.556 18.475 270.154C15.1338 275.118 10.4243 279.039 7.03018 283.965C5.54116 286.036 4.43517 288.356 3.76454 290.817C3.26397 293.198 3.03823 295.629 3.09176 298.062C3.02373 302.051 2.96326 306.085 3.77967 309.991C4.59608 313.897 6.38764 317.735 9.45673 320.296C12.3066 322.676 15.988 323.771 19.5938 324.678C21.4534 325.139 23.4642 325.569 25.2331 324.836C26.5274 324.183 27.651 323.236 28.5138 322.071L37.7135 311.494C43.8669 304.393 50.2621 297.14 58.7058 292.985C61.3516 291.693 64.141 290.719 66.7943 289.465C78.0426 284.048 85.9951 272.957 89.0793 260.869C89.8352 257.915 90.319 254.901 90.8104 251.887L92.1408 243.622C92.243 243.207 92.243 242.774 92.1408 242.36C91.9325 241.894 91.5972 241.496 91.1732 241.212C84.7652 236.04 78.7655 230.382 73.2273 224.289C71.912 222.838 70.6798 220.851 69.1604 219.635C67.2554 218.124 67.3991 218.237 65.1086 219.635C61.5851 221.865 58.3636 224.538 55.5234 227.59Z" fill="#A1616A"/>
<path d="M118.455 282.59C118.378 282.414 118.267 282.256 118.128 282.124C117.989 281.993 117.824 281.891 117.645 281.825C117.465 281.758 117.274 281.729 117.083 281.738C116.891 281.748 116.704 281.795 116.532 281.879C116.359 281.963 116.206 282.08 116.08 282.224C115.954 282.369 115.859 282.537 115.8 282.719C115.741 282.901 115.719 283.093 115.737 283.284C115.754 283.475 115.809 283.66 115.9 283.829L115.144 284.199L137.686 330.374L141.76 328.387L119.218 282.182L118.455 282.59Z" fill="#3F3D56"/>
<path opacity="0.04" d="M55.5234 227.59C53.7318 229.494 52.0763 231.549 50.1562 233.332C48.4672 234.833 46.7009 236.245 44.8647 237.563C41.9014 239.779 39.0037 242.073 36.1714 244.445C33.2166 246.78 30.5429 249.449 28.2039 252.4C24.1672 257.817 22.2547 264.556 18.475 270.154C15.1338 275.118 10.4243 279.039 7.03018 283.965C5.54116 286.036 4.43517 288.356 3.76454 290.817C3.26397 293.198 3.03823 295.629 3.09176 298.062C3.02373 302.051 2.96326 306.085 3.77967 309.991C4.59608 313.897 6.38764 317.735 9.45673 320.296C12.3066 322.676 15.988 323.771 19.5938 324.678C21.4534 325.139 23.4642 325.569 25.2331 324.836C26.5274 324.183 27.651 323.236 28.5138 322.071L37.7135 311.494C43.8669 304.393 50.2621 297.14 58.7058 292.985C61.3516 291.693 64.141 290.719 66.7943 289.465C78.0426 284.048 85.9951 272.957 89.0793 260.869C89.8352 257.915 90.319 254.901 90.8104 251.887L92.1408 243.622C92.243 243.207 92.243 242.774 92.1408 242.36C91.9325 241.894 91.5972 241.496 91.1732 241.212C84.7652 236.04 78.7655 230.382 73.2273 224.289C71.912 222.838 70.6798 220.851 69.1604 219.635C67.2554 218.124 67.3991 218.237 65.1086 219.635C61.5851 221.865 58.3636 224.538 55.5234 227.59Z" fill="black"/>
<path d="M316.124 312.688C316.048 317.508 315.859 322.472 313.856 326.869C312.995 328.772 311.657 330.646 309.653 331.273C308.441 331.553 307.186 331.599 305.957 331.409C291.126 330.106 276.182 331.291 261.742 334.915C265.597 327.209 263.383 317.969 264.448 309.417C264.743 307.082 265.28 304.786 265.484 302.444C266.24 294.133 262.68 286.065 261.047 277.86C259.629 270.758 259.629 263.446 261.047 256.344C261.325 254.516 261.954 252.759 262.899 251.169C264.006 249.622 265.461 248.357 267.147 247.475C273.27 243.992 280.489 243.591 287.368 244.052C292.002 244.362 301.293 243.924 305.155 246.772C309.381 249.892 310.719 260.371 311.861 265.213C313.57 272.641 314.732 280.183 315.338 287.78C316.079 296.06 316.237 304.378 316.124 312.688Z" fill="#A1616A"/>
<path d="M45.3409 329.415L72.5545 347.546L195.016 343.013L114.131 329.415H45.3409Z" fill="white"/>
<path d="M81.2251 185.351C76.7575 189.287 72.9703 193.926 68.7371 198.119C62.9315 203.875 56.3322 208.771 49.7631 213.644C52.1184 214.302 54.2624 215.56 55.9851 217.295C57.7077 219.03 58.95 221.182 59.5903 223.541C59.8775 224.651 60.0211 225.807 60.3462 226.895C61.1021 229.471 62.7652 231.692 64.5492 233.694C72.2144 242.33 82.9411 248.721 87.4615 259.381C87.6091 259.9 87.929 260.353 88.3687 260.665C88.7365 260.828 89.145 260.875 89.5404 260.801C93.63 260.371 96.7595 257.077 99.3675 253.874C104.81 247.074 109.535 239.565 112.218 231.269C114.902 222.974 115.333 213.803 112.407 205.583C110.948 201.488 108.696 197.726 106.458 194.001C104.498 190.743 102.542 187.489 100.592 184.24C99.5716 182.525 98.2714 179.043 96.2682 178.196C91.9442 176.338 83.9994 182.578 81.2251 185.351Z" fill="#009966"/>
<path d="M303.878 234.178L310.311 249.288C303.308 246.842 295.823 246.098 288.475 247.116C281.127 248.134 274.127 250.885 268.054 255.143C264.388 257.764 261.024 261.058 259.369 265.244C258.551 265.399 257.707 265.32 256.933 265.017C256.158 264.713 255.485 264.198 254.992 263.529C254.024 262.172 253.463 260.569 253.374 258.905C252.777 253.103 254.977 247.414 257.154 241.99C258.167 239.451 259.21 236.86 261.009 234.798C262.808 232.735 265.197 231.375 267.586 230.091C275.206 225.879 283.188 222.354 291.435 219.559C294.913 218.434 298.556 218.456 300.506 221.705C302.767 225.581 302.109 230.053 303.878 234.178Z" fill="#009966"/>
<path d="M45.4997 279.515C47.1098 280.799 48.5234 282.318 50.1789 283.541C51.9297 284.756 53.7927 285.801 55.7426 286.662L63.1961 290.243C65.5058 291.442 67.9227 292.424 70.4153 293.174C73.6053 294.028 76.9541 294.111 80.1592 294.904C84.2035 295.901 87.9 297.979 91.8838 299.18C95.8676 300.381 100.532 300.578 103.858 298.077C105.937 296.513 107.509 293.929 110.087 293.544C111.75 293.325 113.352 294.126 114.834 294.904L134.231 305.095C136.847 306.47 139.613 307.997 140.982 310.618C142.35 313.24 141.428 317.221 138.548 317.901C137.544 318.016 136.534 318.074 135.524 318.075C134.526 318.196 133.437 318.785 133.301 319.79C133.296 320.414 133.461 321.027 133.778 321.565C134.647 323.56 134.904 325.947 133.891 327.881C132.878 329.815 130.391 331.016 128.403 330.147C128.743 333.071 125.561 335.119 122.726 335.897C115.575 337.853 107.993 336.652 100.683 335.413C97.8103 334.93 94.8924 334.431 92.2769 333.147C91.022 332.535 89.8579 331.749 88.5879 331.182C85.1031 329.634 81.142 329.838 77.3321 329.906C59.7112 330.215 42.2416 326.952 24.9156 323.703C21.7029 323.099 18.3994 322.457 15.6554 320.681C10.3639 317.236 8.39843 310.165 9.26776 303.909C10.1371 297.654 13.312 291.988 16.434 286.488L20.4783 279.364C21.0069 278.272 21.7469 277.297 22.6554 276.493C28.6046 271.952 40.4047 275.42 45.4997 279.515Z" fill="#A1616A"/>
<path opacity="0.04" d="M45.4997 279.515C47.1098 280.799 48.5234 282.318 50.1789 283.541C51.9297 284.756 53.7927 285.801 55.7426 286.662L63.1961 290.243C65.5058 291.442 67.9227 292.424 70.4153 293.174C73.6053 294.028 76.9541 294.111 80.1592 294.904C84.2035 295.901 87.9 297.979 91.8838 299.18C95.8676 300.381 100.532 300.578 103.858 298.077C105.937 296.513 107.509 293.929 110.087 293.544C111.75 293.325 113.352 294.126 114.834 294.904L134.231 305.095C136.847 306.47 139.613 307.997 140.982 310.618C142.35 313.24 141.428 317.221 138.548 317.901C137.544 318.016 136.534 318.074 135.524 318.075C134.526 318.196 133.437 318.785 133.301 319.79C133.296 320.414 133.461 321.027 133.778 321.565C134.647 323.56 134.904 325.947 133.891 327.881C132.878 329.815 130.391 331.016 128.403 330.147C128.743 333.071 125.561 335.119 122.726 335.897C115.575 337.853 107.993 336.652 100.683 335.413C97.8103 334.93 94.8924 334.431 92.2769 333.147C91.022 332.535 89.8579 331.749 88.5879 331.182C85.1031 329.634 81.142 329.838 77.3321 329.906C59.7112 330.215 42.2416 326.952 24.9156 323.703C21.7029 323.099 18.3994 322.457 15.6554 320.681C10.3639 317.236 8.39843 310.165 9.26776 303.909C10.1371 297.654 13.312 291.988 16.434 286.488L20.4783 279.364C21.0069 278.272 21.7469 277.297 22.6554 276.493C28.6046 271.952 40.4047 275.42 45.4997 279.515Z" fill="black"/>
<path d="M276.256 292.57C272.318 294.428 267.797 294.609 263.685 296.037C259.573 297.465 256.08 300.034 252.308 302.126C242.481 307.611 231.142 309.681 220.007 311.653C213.257 312.862 206.4 314.071 199.597 313.784C190.39 313.391 181.545 310.323 172.625 308.012C163.705 305.7 154.188 304.144 145.351 306.742C140.736 308.147 136.518 310.618 133.037 313.956C129.557 317.294 126.913 321.404 125.319 325.954C123.467 331.386 123.21 337.241 123.565 342.968C125.425 344.335 128.025 342.439 129.038 340.362C130.051 338.284 130.603 335.738 132.568 334.529C135.977 335.685 136.809 340.226 139.621 342.469C141.375 343.875 143.718 344.245 145.948 344.562L157.438 346.194C160.205 346.587 163.418 346.851 165.421 344.902C166.396 343.958 166.933 342.636 167.825 341.623C169.654 339.599 172.708 339.251 175.43 339.523C183.926 340.369 191.894 345.877 200.33 344.57C203.233 344.124 205.932 342.885 208.698 341.91C225.094 336.123 243.312 339.644 260.374 336.327C266.883 335.066 273.149 332.829 279.34 330.472C282.704 329.196 286.106 327.858 288.978 325.698C291.7 323.606 293.846 320.859 295.216 317.713C296.585 314.567 297.134 311.125 296.81 307.709C296.177 302.504 293.578 297.737 289.545 294.383C288.215 293.249 286.469 291.081 284.874 290.371C281.827 289.034 278.841 291.353 276.256 292.57Z" fill="#A1616A"/>
<g opacity="0.1">
<path opacity="0.1" d="M254.168 196.056C252.905 194.938 252.595 193.238 251.507 191.999C249.239 189.378 244.658 189.733 240.924 190.262C234.415 191.176 226.561 191.387 222.524 186.862C220.778 184.913 220.007 182.329 217.875 180.705C212.901 176.927 204.344 180.795 198.864 177.6C194.078 174.812 194.388 168.345 190.397 164.756C186.406 161.168 179.489 161.636 174.069 163.427C173.152 163.848 172.124 163.964 171.136 163.759C169.42 163.155 169.541 161.024 169.964 159.453C172.028 151.86 174.129 144.192 178.143 137.211C179.602 134.665 181.326 132.21 182.263 129.475C183.904 124.685 183.065 119.269 185.219 114.736C182.906 116.247 180.683 117.894 179.255 120.024C176.034 124.821 177.282 130.926 175.475 136.252C174.538 138.987 172.814 141.442 171.355 143.988C167.341 150.969 165.24 158.637 163.176 166.23C162.753 167.801 162.632 169.931 164.348 170.536C165.336 170.741 166.364 170.624 167.281 170.203C172.701 168.413 179.587 167.899 183.609 171.533C187.63 175.167 187.29 181.611 192.075 184.376C197.556 187.572 206.113 183.712 211.087 187.481C213.219 189.098 213.99 191.689 215.736 193.639C219.803 198.172 227.627 197.952 234.135 197.038C237.87 196.509 242.451 196.154 244.719 198.776C245.807 200.015 246.117 201.715 247.379 202.833C249.647 204.858 253.797 203.83 256.012 201.753C257.432 200.275 258.648 198.613 259.626 196.812C257.66 197.409 255.566 197.318 254.168 196.056Z" fill="black"/>
<path opacity="0.1" d="M267.941 187.746C267.454 188.373 267.002 189.026 266.588 189.703C269.49 187.633 272.567 185.698 274.737 183.062C275.3 182.379 275.805 181.652 276.249 180.886C273.232 183.047 270.088 185.034 267.941 187.746Z" fill="black"/>
</g>
<path d="M420.662 337.347L422.93 554.172L433.513 552.661L431.245 337.347H420.662Z" fill="#3F3D56"/>
<path d="M484.161 376.632L486.428 593.457L497.012 591.946L494.744 376.632H484.161Z" fill="#3F3D56"/>
<path d="M681.86 486.163L681.815 482V479.522L681.414 441.385L680.787 381.762L680.681 376.617H670.098L670.151 381.573L670.483 413.508L670.627 427.333L670.748 438.529L670.944 457.885L671.065 469.3V470.509L671.224 485.513L671.36 498.742L672.222 497.79C673.608 496.244 674.963 494.672 676.289 493.076L681.86 486.163Z" fill="#3F3D56"/>
<path d="M472.444 411.763L466.396 420.798L472.444 461.965L523.847 476.024H607L656.892 479.039L680.658 462.781L676.546 434.858L658.403 411.763H472.444Z" fill="#009966"/>
<path d="M466.396 420.798L463.372 445.895C463.372 445.895 447.498 495.1 575.251 492.086C703.004 489.072 681.081 479.031 681.081 479.031L680.326 449.915C680.326 449.915 684.778 463.695 619.851 461.829C554.924 459.963 494.366 453.934 494.366 453.934C494.366 453.934 471.688 457.945 466.396 420.798Z" fill="#3F3D56"/>
<path d="M572.832 195.845C565.544 199.161 560.026 205.59 556.33 212.7C552.633 219.809 550.554 227.613 548.506 235.364C546.344 243.538 544.174 251.736 543.055 260.114C541.06 275.012 542.556 290.673 549.405 304.053C556.254 317.433 568.908 328.228 583.725 330.805C589.447 331.809 595.328 331.605 601.111 331.009C611.564 329.902 621.86 327.635 631.81 324.247C642.204 320.734 653.021 315.325 657.647 305.36C660.331 299.58 660.558 292.993 660.429 286.631C660.073 269.294 657.453 252.077 652.636 235.417C651.237 230.582 649.612 225.709 646.649 221.637C643.685 217.565 639.633 214.581 635.499 211.816C617.817 199.917 594.58 185.963 572.832 195.845Z" fill="#FBBEBE"/>
<path opacity="0.05" d="M572.832 195.845C565.544 199.161 560.026 205.59 556.33 212.7C552.633 219.809 550.554 227.613 548.506 235.364C546.344 243.538 544.174 251.736 543.055 260.114C541.06 275.012 542.556 290.673 549.405 304.053C556.254 317.433 568.908 328.228 583.725 330.805C589.447 331.809 595.328 331.605 601.111 331.009C611.564 329.902 621.86 327.635 631.81 324.247C642.204 320.734 653.021 315.325 657.647 305.36C660.331 299.58 660.558 292.993 660.429 286.631C660.073 269.294 657.453 252.077 652.636 235.417C651.237 230.582 649.612 225.709 646.649 221.637C643.685 217.565 639.633 214.581 635.499 211.816C617.817 199.917 594.58 185.963 572.832 195.845Z" fill="black"/>
<path d="M564.645 290.938C566.754 293.835 569.305 296.384 572.204 298.493C579.401 303.464 588.638 304.136 597.377 304.408C604.392 304.62 612.435 304.219 616.835 298.749C618.815 296.287 619.707 293.144 620.508 290.084C625.453 271.296 628.966 252.16 631.016 232.841L651.033 232.909C659.696 269.981 658.985 308.518 658.229 346.587L657.133 402.1L644.237 400.732C613.614 397.491 582.946 394.25 552.157 393.691C534.117 393.36 516.072 393.955 498.093 395.474L526.175 312.023C529.819 301.175 533.5 290.182 534.355 278.782C535.587 262.244 530.945 244.785 537.378 229.486C537.892 228.255 538.543 226.978 539.714 226.336C540.886 225.694 542.368 225.853 543.713 226.026C546.253 226.366 554.016 226.026 555.861 227.651C558.582 230.008 556.783 230.363 555.823 234.163C554.107 240.962 552.482 247.255 552.505 254.342C552.527 267.208 556.519 280.792 564.645 290.938Z" fill="#009966"/>
<path d="M681.86 486.163C685.232 481.69 688.409 477.059 691.392 472.27C689.881 469.036 688.217 465.878 686.895 462.577C684.869 457.515 683.705 452.151 682.556 446.825C682.162 445.012 681.772 443.198 681.384 441.385C677.151 421.66 673.174 401.654 672.35 381.656C672.275 379.994 672.227 378.332 672.207 376.67C672.207 376.429 672.207 376.194 672.207 375.915C672.207 374.094 672.207 372.273 672.207 370.46C672.298 365.927 672.585 361.357 673.106 356.809C673.205 355.917 673.318 355.026 673.439 354.134C673.439 353.938 673.484 353.749 673.515 353.552L724.918 351.679L729.242 351.52C732.213 351.414 735.357 351.248 737.807 349.563C741.927 346.738 742.41 340.943 742.342 335.965C742.092 323.381 740.665 310.848 738.079 298.53C736.129 289.268 733.347 279.802 727.103 272.685C721.978 266.838 714.554 262.584 711.886 255.309C710.896 252.604 710.646 249.635 709.361 247.052C708.076 244.468 705.952 242.571 703.948 240.577C696.898 233.595 691.049 225.498 686.638 216.613C683.576 210.448 680.258 203.649 676.259 199.388C676.062 199.169 675.866 198.965 675.661 198.768C672.26 195.406 668.367 193.933 663.755 196.222C662.926 196.638 662.137 197.129 661.397 197.688C659.754 198.943 658.251 200.372 656.914 201.949C652.256 207.302 648.17 213.125 644.721 219.325C642.296 223.69 640.214 228.237 638.492 232.924C637.133 236.627 636.01 240.412 635.128 244.256C634.478 247.104 633.964 249.983 633.556 252.869C632.044 263.718 632.044 274.778 632.256 285.763C632.482 295.856 632.928 305.972 633.843 316.027C634.07 318.46 634.322 320.89 634.599 323.318C635.153 328.118 635.839 332.902 636.655 337.672C636.98 339.493 637.313 341.314 637.683 343.127C637.774 343.61 637.872 344.094 637.971 344.57L638.016 344.774C639.014 348.988 639.789 353.253 640.337 357.549C640.397 358.088 640.442 358.624 640.473 359.158C640.6 361.628 640.58 364.102 640.412 366.569C640.238 369.486 639.966 372.394 639.83 375.31C639.83 375.824 639.83 376.33 639.777 376.821C639.739 378.295 639.777 379.768 639.777 381.241C639.931 384.765 640.35 388.273 641.032 391.735C642.307 398.173 644.51 404.392 647.571 410.199C647.858 410.743 648.153 411.279 648.448 411.808C652.28 418.653 657.118 424.931 660.664 431.934C663.722 438.236 666.006 444.885 667.467 451.735C667.971 453.997 668.45 456.263 668.903 458.535C669.606 462.161 670.234 465.818 670.876 469.474C670.937 469.837 671.005 470.23 671.073 470.562C671.927 475.412 672.827 480.24 673.983 484.977C674.656 487.734 675.412 490.454 676.296 493.128L681.86 486.163Z" fill="#464353"/>
<path d="M671.761 426.615C671.761 427.295 671.715 427.975 671.685 428.663C671.55 431.978 671.245 435.284 670.771 438.567C670.144 443.049 669.047 447.453 667.497 451.705C666.47 454.501 665.163 457.187 663.597 459.721C662.207 461.971 660.58 464.066 658.744 465.969C654.208 470.683 647.677 472.186 641.357 474.173C638.449 475.015 635.639 476.162 632.974 477.596C632.498 477.86 632.029 478.147 631.575 478.449L623.668 483.685C621.204 485.309 618.687 486.994 616.993 489.404C616.716 489.814 616.464 490.24 616.237 490.681C615.167 492.899 614.385 495.245 613.909 497.661C609.797 514.781 605.677 531.915 602.857 549.291C602.668 550.44 602.487 551.595 602.29 552.751L602.222 553.114C602.188 553.028 602.148 552.945 602.101 552.865C581.873 565.088 560.896 576.119 539.283 584.95L534.589 545.665C534.1 542.471 533.938 539.236 534.105 536.01C534.551 530.925 536.622 526.105 537.182 521.036C537.712 516.073 536.773 511.064 534.483 506.629C533.591 504.906 532.472 503.214 532.268 501.288C532.064 499.361 533.175 497.601 535.111 497.404C536.622 495.727 536.743 493.438 536.297 491.172C536.06 489.989 535.706 488.832 535.239 487.719C533.954 484.561 532.329 481.124 533.432 477.898C533.724 477.313 533.855 476.661 533.81 476.009C533.818 475.969 533.818 475.928 533.81 475.888C533.553 475.042 532.548 474.672 532.026 473.954C531.044 472.617 532.026 470.796 532.631 469.255C533.219 467.599 533.561 465.865 533.644 464.11C533.727 463.136 533.788 462.153 533.894 461.186C534.041 459.878 534.276 458.58 534.597 457.303C536.433 450.066 540.849 443.748 547.017 439.534C549.957 437.555 553.23 436.112 556.231 434.246C559.306 432.175 562.24 429.903 565.015 427.446C571.673 421.906 578.594 416.683 585.781 411.778C593.508 406.503 601.512 401.646 609.759 397.227C611.523 396.275 613.287 395.348 615.051 394.447C616.971 393.439 618.903 392.485 620.849 391.584C627.077 388.614 634.145 389.725 641.032 391.704C643.92 392.528 646.77 393.51 649.521 394.401C652.208 395.275 654.793 396.435 657.232 397.862C663.332 401.443 668.374 406.731 670.468 413.41C670.471 413.452 670.471 413.495 670.468 413.538C671.799 417.723 671.882 422.211 671.761 426.615Z" fill="#F86D70"/>
<path opacity="0.1" d="M671.761 426.615C671.761 427.295 671.715 427.975 671.685 428.663C671.55 431.978 671.245 435.284 670.771 438.567C670.144 443.049 669.047 447.453 667.497 451.705C666.47 454.501 665.163 457.187 663.597 459.721C662.207 461.971 660.58 464.066 658.744 465.969C654.208 470.683 647.677 472.186 641.357 474.173C638.449 475.015 635.639 476.162 632.974 477.596C632.498 477.86 632.029 478.147 631.575 478.449L623.668 483.685C621.204 485.309 618.687 486.994 616.993 489.404C616.716 489.814 616.464 490.24 616.237 490.681C615.167 492.899 614.385 495.245 613.909 497.661C609.797 514.781 605.677 531.915 602.857 549.291C602.668 550.44 602.487 551.595 602.29 552.751L602.222 553.114C602.188 553.028 602.148 552.945 602.101 552.865C581.873 565.088 560.896 576.119 539.283 584.95L534.589 545.665C534.1 542.471 533.938 539.236 534.105 536.01C534.551 530.925 536.622 526.105 537.182 521.036C537.712 516.073 536.773 511.064 534.483 506.629C533.591 504.906 532.472 503.214 532.268 501.288C532.064 499.361 533.175 497.601 535.111 497.404C536.622 495.727 536.743 493.438 536.297 491.172C536.06 489.989 535.706 488.832 535.239 487.719C533.954 484.561 532.329 481.124 533.432 477.898C533.724 477.313 533.855 476.661 533.81 476.009C533.818 475.969 533.818 475.928 533.81 475.888C533.553 475.042 532.548 474.672 532.026 473.954C531.044 472.617 532.026 470.796 532.631 469.255C533.219 467.599 533.561 465.865 533.644 464.11C533.727 463.136 533.788 462.153 533.894 461.186C534.041 459.878 534.276 458.58 534.597 457.303C536.433 450.066 540.849 443.748 547.017 439.534C549.957 437.555 553.23 436.112 556.231 434.246C559.306 432.175 562.24 429.903 565.015 427.446C571.673 421.906 578.594 416.683 585.781 411.778C593.508 406.503 601.512 401.646 609.759 397.227C611.523 396.275 613.287 395.348 615.051 394.447C616.971 393.439 618.903 392.485 620.849 391.584C627.077 388.614 634.145 389.725 641.032 391.704C643.92 392.528 646.77 393.51 649.521 394.401C652.208 395.275 654.793 396.435 657.232 397.862C663.332 401.443 668.374 406.731 670.468 413.41C670.471 413.452 670.471 413.495 670.468 413.538C671.799 417.723 671.882 422.211 671.761 426.615Z" fill="black"/>
<path d="M599.985 301.477C599.908 301.301 599.797 301.143 599.658 301.012C599.519 300.88 599.354 300.778 599.175 300.712C598.995 300.645 598.804 300.616 598.613 300.625C598.421 300.635 598.234 300.683 598.062 300.766C597.889 300.85 597.736 300.967 597.61 301.112C597.484 301.256 597.389 301.424 597.33 301.606C597.271 301.788 597.249 301.981 597.267 302.171C597.284 302.362 597.339 302.547 597.43 302.716L596.674 303.086L619.216 349.261L623.29 347.274L600.748 301.069L599.985 301.477Z" fill="#3F3D56"/>
<path d="M628.166 253.11C654.885 253.11 676.546 231.463 676.546 204.759C676.546 178.056 654.885 156.408 628.166 156.408C601.447 156.408 579.786 178.056 579.786 204.759C579.786 231.463 601.447 253.11 628.166 253.11Z" fill="#FBBEBE"/>
<path d="M692.02 174.827C691.793 170.983 691.222 167.168 690.311 163.427C687.469 151.211 682.276 139.183 673.333 130.412C672.782 128.268 672.124 126.152 671.36 124.074C671.346 124.022 671.328 123.972 671.307 123.922C668.64 116.6 664.783 109.767 659.893 103.698C657.058 100.177 653.384 96.7022 648.864 96.5662C647.594 96.5209 646.248 96.74 645.084 96.1583C644.228 95.6051 643.507 94.8667 642.975 93.9976C640.736 91.1704 637.767 89.0083 634.389 87.7447C631.01 86.4811 627.35 86.1642 623.804 86.828L623.336 86.9263C623.071 86.9791 622.806 87.0396 622.58 87.1076C622.353 87.1756 621.945 87.2889 621.627 87.3871C621.975 87.9613 622.315 88.543 622.648 89.1323C623.545 90.7289 624.376 92.3607 625.142 94.0278C625.777 95.4179 626.364 96.8307 626.904 98.2661C619.163 99.15 612.858 104.642 607.098 109.87L593.537 122.17C593.512 122.19 593.489 122.213 593.469 122.238L593.076 122.615C592.977 122.714 592.879 122.812 592.788 122.918C592.752 122.949 592.719 122.985 592.69 123.023C592.577 123.144 592.471 123.273 592.365 123.401C592.176 123.639 592.007 123.892 591.859 124.157C591.784 124.27 591.719 124.389 591.662 124.512C591.641 124.548 591.624 124.586 591.609 124.625C591.56 124.728 591.517 124.834 591.481 124.942C591.477 124.957 591.477 124.973 591.481 124.988C591.459 125.05 591.442 125.113 591.428 125.177C591.273 125.708 591.319 126.278 591.556 126.778L600.499 126.876H601.55C601.595 128.07 601.633 129.271 601.678 130.465C600.259 131.526 598.897 132.661 597.596 133.865C596.178 135.176 594.847 136.58 593.612 138.065C585.546 147.803 581.336 160.382 580.913 173.044C580.913 173.437 580.913 173.8 580.913 174.208C580.913 175.363 580.913 176.519 580.913 177.668C580.913 178.423 580.981 179.179 581.041 179.934C581.045 180.918 581.305 181.884 581.797 182.737C581.861 182.832 581.932 182.923 582.009 183.009C582.462 183.501 583.006 183.901 583.611 184.188L584.261 184.505C584.586 184.663 584.896 184.815 585.199 184.988C588.049 186.598 589.734 189.703 592.327 191.697C592.478 191.81 592.63 191.924 592.781 192.022L593.121 192.249L593.333 192.385L593.62 192.551C593.808 192.664 594.002 192.768 594.202 192.861L594.565 193.042H594.625C594.928 193.178 595.23 193.306 595.54 193.42L595.971 193.571L596.099 193.616C596.22 193.654 596.349 193.699 596.477 193.729C596.734 193.805 596.986 193.873 597.233 193.933L597.989 194.1C598.284 194.152 598.586 194.205 598.889 194.243L599.335 194.303L599.788 194.349C600.509 194.414 601.235 194.452 601.965 194.462C604.259 194.448 606.549 194.289 608.822 193.986L628.113 191.72C632.49 191.214 636.958 190.707 641.274 191.599C644.933 192.354 648.304 194.092 651.857 195.323C652.658 195.603 653.46 195.86 654.268 196.079C654.563 196.162 654.866 196.253 655.168 196.328L655.584 196.434L656.551 196.668C656.899 196.751 657.247 196.834 657.595 196.902C658.086 197.008 658.57 197.099 659.061 197.189C659.394 197.257 659.734 197.31 660.074 197.371H660.142L661.11 197.522H661.344L662.062 197.62C662.41 197.673 662.758 197.718 663.113 197.756C663.884 197.852 664.655 197.935 665.426 198.005C666.673 198.126 667.928 198.217 669.206 198.292L670.461 198.368L671.715 198.428L675.495 198.595H675.661H676.191C677.762 198.704 679.341 198.623 680.892 198.353C681.165 198.3 681.429 198.24 681.694 198.164C681.958 198.088 682.178 198.013 682.45 197.922C685.284 196.834 687.356 194.334 688.792 191.659C689.094 191.093 689.374 190.526 689.631 189.944C689.888 189.363 690.122 188.773 690.334 188.184C690.599 187.429 690.825 186.711 691.022 185.955C691.082 185.751 691.135 185.547 691.181 185.336C691.226 185.124 691.332 184.709 691.392 184.392C691.581 183.523 691.725 182.646 691.831 181.762C691.831 181.483 691.899 181.196 691.929 180.916C691.997 180.161 692.05 179.458 692.08 178.718C692.08 178.159 692.08 177.592 692.08 177.026C692.073 176.414 692.02 175.605 692.02 174.827ZM672.638 129.725C672.025 129.15 671.398 128.599 670.763 128.078C671.469 128.523 672.1 129.079 672.63 129.725H672.638Z" fill="#464353"/>
<path d="M535.315 202.1C529.623 201.397 523.976 198.904 518.359 200.128C514.844 200.884 511.82 203.067 509.008 205.311C498.543 213.694 489.645 223.86 482.724 235.341C481.551 237.058 480.726 238.988 480.298 241.023C479.935 243.38 480.578 245.775 481.341 248.034C486.512 263.302 497.571 276.055 502.605 291.368C507.897 307.475 506.06 325.078 502.159 341.578C497.324 361.947 489.466 381.479 478.846 399.524C477.405 402.207 475.598 404.678 473.479 406.867C470.728 409.511 467.031 411.4 465.398 414.86C464.642 416.371 464.423 418.094 463.887 419.71C462.375 424.243 458.716 428.126 458.361 432.909C458.096 436.558 459.827 440.01 460.878 443.485C462.65 449.456 462.462 455.837 460.341 461.693C456.509 472.194 446.485 481.743 449.395 492.539C455.889 490.673 463.085 488.248 466.147 482.227C467.228 480.096 467.764 477.558 469.586 476.002C473.222 472.912 479.413 475.707 483.276 472.866C486.194 470.706 486.3 466.278 485 462.879C483.7 459.479 481.462 456.487 480.464 452.989C478.725 446.681 481.507 440.01 480.993 433.49C480.751 430.468 479.822 427.575 479.754 424.568C479.625 418.728 482.86 413.236 487.162 409.269C491.463 405.303 496.777 402.674 502.008 400.083L521.783 390.261C528.957 386.711 536.819 382.382 539.17 374.736C540.062 371.873 540.07 368.821 540.115 365.829C540.788 320.115 552.248 275.322 563.64 231.043C565.408 224.183 567.208 217.293 569.838 210.705C572.469 204.117 577.617 198.829 580.24 192.709C565.023 190.926 551.121 204.079 535.315 202.1Z" fill="#464353"/>
<path d="M644.328 488.89C646.074 499.467 647.14 510.27 647.971 521.021C634.365 532.293 619.715 542.099 604.83 551.195C603.984 551.716 603.13 552.23 602.275 552.706L602.207 553.069C602.173 552.983 602.133 552.899 602.086 552.819C600.931 550.326 598.912 548.334 596.402 547.214C590.823 535.504 585.249 523.794 579.68 512.084C576.657 505.76 573.633 499.376 572.121 492.554C572.121 492.411 572.053 492.26 572.03 492.116C570.881 486.828 570.617 481.335 569.853 475.979C569.466 472.911 568.775 469.889 567.79 466.958C566.882 464.352 565.635 461.821 564.532 459.275C563.171 456.132 562.029 452.952 561.976 449.56C561.976 448.479 562.044 447.293 561.515 446.386C560.95 445.606 560.251 444.931 559.452 444.392C558.454 443.508 557.697 442.384 557.253 441.128C556.809 439.871 556.691 438.522 556.912 437.207C552.376 437.442 549.821 442.314 547.999 446.447C546.343 450.489 544.168 454.298 541.528 457.779C539.605 460.266 537.158 462.301 534.362 463.74C534.113 463.861 533.863 463.982 533.606 464.088C527.294 466.868 519.924 465.886 513.083 464.632C507.103 463.536 500.92 462.176 496.112 458.459L495.598 458.051C494.175 456.869 492.905 455.514 491.818 454.017C487.789 448.517 486.005 441.272 485.015 434.374C484.924 433.725 484.833 433.075 484.75 432.425C484.063 427.551 483.873 422.62 484.183 417.708C484.274 416.499 484.403 415.291 484.561 414.089C484.667 413.334 484.781 412.518 484.909 411.732C484.905 411.71 484.905 411.687 484.909 411.664C485.106 410.418 485.317 409.164 485.529 407.887C486.285 403.603 487.041 399.206 489.309 395.52C490.801 393.226 492.684 391.211 494.872 389.566C495.689 388.924 496.528 388.312 497.374 387.723C498.75 386.771 500.164 385.864 501.6 385.011C505.214 382.849 509.007 381.004 512.939 379.496C513.876 379.133 514.829 378.793 515.781 378.468C519.484 377.152 523.468 376.837 527.332 377.554C530.756 378.049 534.215 378.252 537.673 378.159C546.54 377.985 555.445 376.292 564.297 375.197C576.589 373.686 589.795 373.505 600.514 379.73C601.028 380.025 601.527 380.334 602.026 380.659C607.317 384.119 611.581 388.97 615.02 394.386C615.776 395.527 616.434 396.698 617.084 397.884C618.583 400.607 619.938 403.406 621.143 406.27C621.857 407.677 622.242 409.226 622.27 410.803C622.252 411.103 622.212 411.401 622.149 411.695C621.945 412.767 621.537 413.81 621.393 414.898C620.917 419.015 624.417 422.453 625.724 426.374C626.571 428.927 626.48 431.662 626.957 434.352C627.644 438.129 629.496 441.529 631.16 444.928C633.788 450.401 636.035 456.048 637.887 461.829C639.203 465.855 640.329 469.943 641.319 474.068C641.642 475.392 641.947 476.719 642.234 478.049C643.058 481.705 643.731 485.286 644.328 488.89Z" fill="#F86D70"/>
<path d="M724.926 377.01V382.299L723.95 382.284L722.862 382.268L710.706 382.117L680.756 381.724L672.35 381.619L670.173 381.588L657.557 381.43L639.777 381.196L602.056 380.705L536.6 379.858L512.977 379.556L503.497 379.435L494.774 379.322L489.339 379.246L484.191 379.178L446.024 378.687L435.441 378.551L433.135 378.521L431.638 374.661L420.76 346.625L418.772 341.502L420.284 335.458L427.088 339.991L431.275 340.513L500.224 349.08L513.166 350.689L540.606 354.104L567.487 357.443L578.025 358.75L640.382 366.501L657.806 368.67L672.229 370.46L723.512 376.836L724.926 377.01Z" fill="#3F3D56"/>
<path d="M420.284 335.458L433.891 370.966L724.926 377.01V338.48L420.284 335.458Z" fill="#504F60"/>
<path d="M435.403 374.744L437.671 591.568L448.254 590.057L445.986 374.744H435.403Z" fill="#3F3D56"/>
<path d="M723.95 382.276H722.862C721.1 395.794 718.184 409.137 714.146 422.158L710.706 382.117L710.563 380.41L723.278 378.944L723.701 378.899L723.95 382.276Z" fill="#3F3D56"/>
<path d="M682.593 356.612L571.849 358.879L537.454 347.546L629.678 342.258L682.593 356.612Z" fill="white"/>
<path d="M543.675 312.552C542.501 313.002 541.461 313.743 540.652 314.705C540.019 315.748 539.634 316.921 539.525 318.135L537.666 329.218C537.382 330.232 537.432 331.31 537.809 332.293C538.293 333.222 539.699 333.706 540.402 332.935C540.311 335.103 540.5 337.415 541.763 339.183C543.025 340.951 545.671 341.88 547.455 340.649C547.735 341.104 548.11 341.494 548.556 341.79C549.001 342.086 549.505 342.282 550.034 342.364C550.562 342.446 551.102 342.412 551.616 342.264C552.131 342.117 552.606 341.859 553.011 341.51C551.938 341.873 551.862 343.512 552.626 344.343C553.48 345.097 554.57 345.532 555.71 345.574C568.994 347.446 582.537 345.743 594.943 340.641C596.114 340.158 593.03 325.72 592.72 324.24C591.964 320.757 591.586 316.503 588.646 314.161C581.616 308.556 569.128 307.453 560.563 308.117C554.711 308.56 548.989 310.063 543.675 312.552Z" fill="#FBBEBE"/>
<path opacity="0.1" d="M656.355 314.229C629.013 314.751 601.104 315.196 575.009 307.014C577.501 316.668 577.329 326.817 574.51 336.38L702.353 346.957C707.773 347.403 730.247 349.941 735.531 348.664C740.815 347.388 691.196 331.054 693.199 326C698.71 312.076 717.17 303.917 703.873 303.396C687.091 302.731 673.265 313.912 656.355 314.229Z" fill="black"/>
<path d="M657.111 315.74C629.769 316.262 601.86 316.707 575.765 308.525C578.257 318.179 578.085 328.328 575.266 337.891L703.109 348.468C708.529 348.914 731.003 351.49 736.287 350.175C741.571 348.861 740.332 342.386 742.335 337.332C747.846 323.408 717.926 305.428 704.629 304.907C687.847 304.242 674.021 315.423 657.111 315.74Z" fill="#464353"/>
<path d="M613.637 317.841C614.812 318.29 615.852 319.031 616.661 319.994C617.293 321.037 617.68 322.209 617.795 323.424L619.654 334.507C619.934 335.521 619.884 336.598 619.511 337.581C619.027 338.511 617.613 338.994 616.918 338.224C617.001 340.392 616.819 342.704 615.557 344.471C614.295 346.239 611.649 347.169 609.857 345.937C609.578 346.393 609.202 346.782 608.757 347.078C608.312 347.374 607.807 347.57 607.279 347.652C606.75 347.734 606.21 347.7 605.696 347.553C605.182 347.405 604.706 347.148 604.301 346.798C605.375 347.161 605.458 348.8 604.694 349.631C603.836 350.386 602.744 350.821 601.603 350.863C588.321 352.734 574.781 351.031 562.377 345.93C561.205 345.446 564.282 331.009 564.6 329.528C565.355 326.045 565.733 321.792 568.674 319.45C575.697 313.844 588.192 312.741 596.757 313.406C602.606 313.849 608.326 315.352 613.637 317.841Z" fill="#FBBEBE"/>
<path d="M432.969 293.778C430.459 297.012 427.942 300.313 426.324 304.083C423.232 311.275 423.686 319.42 424.2 327.231C424.344 329.498 424.525 331.809 425.712 333.691C426.738 335.112 428.091 336.265 429.658 337.053C436.204 340.77 443.869 341.88 451.353 342.711C462.813 343.98 474.313 344.753 485.854 345.03C514.443 345.726 543.471 343.391 571.32 349.866C567.873 344.63 567.88 337.702 569.808 331.734C571.736 325.766 575.447 320.568 579.083 315.453C566.338 311.419 552.671 317.72 539.321 317.093C525.616 316.45 512.931 308.533 499.211 308.541C496.263 308.541 493.262 308.911 490.397 308.201C487.532 307.49 484.758 305.33 484.493 302.391C488.152 303.214 491.622 300.087 493.134 296.657C494.645 293.227 494.918 289.351 496.384 285.899C500.035 277.309 509.9 273.327 516.038 266.256C517.006 265.138 517.921 263.816 517.89 262.335C517.746 261.081 517.218 259.901 516.379 258.958C511.276 252.159 503.588 248.381 497.201 243.093C494.978 241.249 490.495 234.299 488.001 233.657C483.374 232.471 479.451 239.149 476.443 242.405C461.253 258.9 446.762 276.024 432.969 293.778Z" fill="#464353"/>
<g opacity="0.1">
<path opacity="0.1" d="M626.896 93.7407C626.007 91.3794 624.982 89.0714 623.827 86.828C623.08 86.9714 622.343 87.1607 621.62 87.3946C622.917 89.5475 624.085 91.7751 625.12 94.0656C625.702 93.9145 626.291 93.8087 626.896 93.7407Z" fill="black"/>
<path opacity="0.1" d="M670.755 123.53C670.96 123.696 671.157 123.885 671.353 124.059C671.339 124.01 671.321 123.962 671.3 123.915C671.129 123.789 670.947 123.661 670.755 123.53Z" fill="black"/>
<path opacity="0.1" d="M600.484 126.854C600.877 126.544 601.24 126.219 601.663 125.917L601.542 122.328L593.469 122.245C592.161 123.446 590.77 125.169 591.541 126.778L600.484 126.854Z" fill="black"/>
<path opacity="0.1" d="M688.747 187.262C687.31 189.937 685.239 192.445 682.404 193.525C680.22 194.356 677.816 194.281 675.48 194.175C667.512 193.85 659.409 193.495 651.88 190.858C648.357 189.619 644.986 187.889 641.297 187.126C636.98 186.235 632.513 186.741 628.136 187.255L608.844 189.521C603.152 190.186 596.81 190.685 592.267 187.194C589.666 185.2 587.988 182.095 585.138 180.493C583.936 179.813 582.508 179.375 581.729 178.227C581.237 177.374 580.977 176.408 580.973 175.424C580.913 174.631 580.875 173.837 580.845 173.044C580.763 175.349 580.805 177.657 580.973 179.957C580.977 180.941 581.237 181.907 581.729 182.76C582.485 183.9 583.936 184.339 585.138 185.026C587.988 186.628 589.674 189.733 592.267 191.727C596.802 195.218 603.152 194.749 608.844 194.054L628.136 191.788C632.513 191.274 636.98 190.768 641.297 191.659C644.955 192.415 648.327 194.152 651.88 195.391C659.439 198.028 667.512 198.413 675.48 198.708C677.816 198.806 680.22 198.889 682.404 198.058C685.239 196.978 687.31 194.47 688.747 191.795C691.528 186.62 692.307 180.75 692.012 174.835C691.85 179.167 690.735 183.41 688.747 187.262Z" fill="black"/>
</g>
<path opacity="0.1" d="M626.677 98.5985L637.26 108.42C637.26 108.42 628.189 104.642 626.677 98.5985Z" fill="black"/>
</g>
<defs>
<clipPath id="clip0">
<rect width="743" height="606.678" fill="white"/>
</clipPath>
</defs>
</svg>
